<svg width="129" height="32" viewBox="0 0 129 32" fill="none" xmlns="http://www.w3.org/2000/svg">
<g clip-path="url(#clip0_22419_8129)">
<path opacity="0.8" d="M0 13.6185L7.16673 13.6201L11.5246 13.6207V9.1239L0 13.6185Z" fill="#8799B5"/>
<path d="M11.5244 9.12397V25L16.9672 7.00061L11.5244 9.12397Z" fill="#8799B5"/>
<path opacity="0.6" d="M11.5259 13.6208L7.16797 13.6202L11.5259 25V13.6208Z" fill="#8799B5"/>
<path d="M0 13.6187L8.28431 16.5399L7.16673 13.6202L0 13.6187Z" fill="#8799B5"/>
<path d="M75.7984 17.6414H75.5759C75.5016 17.6414 75.4276 17.6469 75.3538 17.6581C75.0889 17.6804 74.8265 17.7132 74.5675 17.7573C74.308 17.8013 74.0778 17.8785 73.8767 17.9887C73.6755 18.0992 73.5114 18.2426 73.3846 18.4187C73.2575 18.5953 73.1938 18.8213 73.1938 19.0971C73.1938 19.4058 73.2786 19.6676 73.4479 19.8826C73.6174 20.0977 73.9031 20.2051 74.3054 20.2051C74.5067 20.2051 74.6971 20.178 74.8774 20.1224C75.0571 20.0674 75.2159 19.9956 75.3538 19.9076C75.4909 19.8193 75.5999 19.723 75.6791 19.618C75.7587 19.5135 75.7984 19.4169 75.7984 19.3286V17.6414ZM77.831 19.5601C77.831 20.4311 77.9527 21.0655 78.1963 21.4623C78.0057 21.5391 77.8284 21.5947 77.6644 21.6277C77.5001 21.6606 77.328 21.6771 77.1482 21.6771C76.767 21.6771 76.4783 21.6002 76.2825 21.4458C76.0865 21.2914 75.9623 21.0708 75.9095 20.7838C75.6765 21.038 75.3694 21.2527 74.9883 21.4293C74.6073 21.6055 74.1411 21.6941 73.5909 21.6941C73.3049 21.6941 73.0194 21.6527 72.7332 21.5705C72.4474 21.4877 72.1877 21.3534 71.9551 21.1665C71.7221 20.9796 71.5318 20.7294 71.3834 20.4162C71.2353 20.1027 71.1612 19.7209 71.1612 19.2703C71.1612 18.7096 71.2908 18.2532 71.5503 17.9017C71.8094 17.5499 72.1351 17.2725 72.5269 17.0688C72.9186 16.8656 73.342 16.7259 73.7975 16.6487C74.2524 16.5718 74.6709 16.5224 75.0521 16.5002C75.1791 16.489 75.3033 16.4837 75.4252 16.4837H75.7665V16.1824C75.7665 15.7586 75.6578 15.4575 75.4409 15.2791C75.2237 15.1008 74.8717 15.0114 74.3849 15.0114C73.9297 15.0114 73.5248 15.0887 73.1701 15.243C72.815 15.3975 72.4685 15.5738 72.1301 15.7723C71.9816 15.585 71.8623 15.3782 71.7723 15.1519C71.6827 14.9262 71.6375 14.7578 71.6375 14.6475C71.6375 14.4931 71.7195 14.3444 71.8837 14.2009C72.0477 14.0577 72.2728 13.9281 72.5588 13.8121C72.8445 13.6964 73.1727 13.6029 73.543 13.531C73.9135 13.4594 74.3054 13.4235 74.7184 13.4235C75.2902 13.4235 75.7743 13.4842 76.1716 13.6055C76.5685 13.727 76.8913 13.9143 77.14 14.1678C77.3889 14.4218 77.5661 14.7386 77.6722 15.1189C77.7781 15.4994 77.831 15.9433 77.831 16.4503V19.5601ZM67.5244 14.4246C67.5879 14.3263 67.6726 14.2168 67.7785 14.0963C67.8841 13.976 68.0139 13.8666 68.1675 13.7682C68.3208 13.6697 68.4906 13.5875 68.6759 13.5219C68.8608 13.4562 69.0592 13.4235 69.2715 13.4235C69.3981 13.4235 69.5332 13.4347 69.6761 13.4562C69.8191 13.4782 69.9515 13.5193 70.0732 13.5792C70.1949 13.6395 70.2927 13.7214 70.367 13.8254C70.4411 13.9292 70.4783 14.0577 70.4783 14.2108C70.4783 14.4512 70.4197 14.7276 70.3037 15.0395C70.1867 15.3518 70.0704 15.618 69.9541 15.8385C69.7739 15.6842 69.594 15.5656 69.4143 15.4828C69.2342 15.4002 69.0225 15.3587 68.779 15.3587C68.4506 15.3587 68.1756 15.4583 67.9532 15.6573C67.7307 15.8562 67.6198 16.094 67.6198 16.3707V21.7253H65.4601V13.655C65.5131 13.6442 65.5764 13.633 65.6507 13.622C65.714 13.6111 65.7881 13.6028 65.8731 13.5971C65.9576 13.5916 66.0579 13.5888 66.1744 13.5888C66.5134 13.5888 66.8073 13.6572 67.056 13.7938C67.3045 13.9302 67.4607 14.1406 67.5244 14.4246ZM61.3841 14.4246C61.4474 14.3263 61.5322 14.2168 61.638 14.0963C61.7439 13.976 61.8738 13.8666 62.0273 13.7682C62.1804 13.6697 62.3501 13.5875 62.5355 13.5219C62.7205 13.4562 62.919 13.4235 63.131 13.4235C63.258 13.4235 63.393 13.4347 63.5358 13.4562C63.6785 13.4782 63.811 13.5193 63.9327 13.5792C64.0545 13.6395 64.1525 13.7214 64.2266 13.8254C64.3007 13.9292 64.3379 14.0577 64.3379 14.2108C64.3379 14.4512 64.2796 14.7276 64.1633 15.0395C64.0466 15.3518 63.9301 15.618 63.8138 15.8385C63.6337 15.6842 63.4535 15.5656 63.2739 15.4828C63.0937 15.4002 62.882 15.3587 62.6385 15.3587C62.3102 15.3587 62.0351 15.4583 61.8128 15.6573C61.5906 15.8562 61.4793 16.094 61.4793 16.3707V21.7253H59.3196V13.655C59.3725 13.6442 59.4359 13.633 59.5099 13.622C59.5736 13.6111 59.6479 13.6028 59.7326 13.5971C59.817 13.5916 59.9178 13.5888 60.0343 13.5888C60.373 13.5888 60.6668 13.6572 60.9155 13.7938C61.1642 13.9302 61.3208 14.1406 61.3841 14.4246ZM55.6723 16.715C55.6723 16.1857 55.5738 15.7558 55.3769 15.4249C55.1797 15.094 54.8254 14.9285 54.3146 14.9285C53.8782 14.9285 53.5293 15.0859 53.2686 15.4001C53.0076 15.7143 52.8775 16.1526 52.8775 16.715H55.6723ZM54.9487 20.0729C55.2142 20.0729 55.4477 20.0428 55.65 19.9819C55.8516 19.9213 56.0321 19.8471 56.1917 19.7585C56.3509 19.6705 56.4892 19.5739 56.6062 19.4692C56.723 19.3644 56.8291 19.2679 56.9248 19.1799C57.052 19.3448 57.1847 19.5575 57.3232 19.8164C57.4611 20.0757 57.5302 20.2879 57.5302 20.4534C57.5302 20.6958 57.398 20.9165 57.1334 21.1149C56.911 21.2914 56.5958 21.4431 56.1885 21.5699C55.7808 21.6966 55.3017 21.7598 54.7513 21.7598C54.2533 21.7598 53.7639 21.6941 53.2821 21.5614C52.8006 21.4293 52.3717 21.1975 51.9962 20.8666C51.6199 20.5362 51.3157 20.0922 51.0829 19.5352C50.8498 18.9786 50.7335 18.2755 50.7335 17.4263C50.7335 16.7314 50.837 16.1336 51.0432 15.6316C51.2497 15.13 51.5248 14.7137 51.8693 14.3828C52.2129 14.0521 52.6019 13.8096 53.036 13.655C53.4701 13.5007 53.9149 13.4235 54.3701 13.4235C54.9631 13.4235 55.4657 13.5202 55.8785 13.7129C56.2915 13.906 56.6278 14.1651 56.8873 14.4904C57.1465 14.8156 57.3341 15.1879 57.451 15.6068C57.5673 16.0261 57.6257 16.467 57.6257 16.9301V17.1616C57.6257 17.2502 57.6228 17.3435 57.6175 17.4427C57.6123 17.5422 57.6069 17.639 57.602 17.7323C57.5962 17.8262 57.5884 17.9005 57.5783 17.9556H52.8932C52.9356 18.5622 53.1164 19.0667 53.435 19.4692C53.7533 19.8721 54.258 20.0729 54.9487 20.0729ZM45.2704 20.2879C45.1961 20.0674 45.1486 19.836 45.1275 19.593C45.1061 19.3507 45.0958 19.1082 45.0958 18.8653V11.1903C45.1695 11.1795 45.2491 11.1684 45.3338 11.1572C45.4076 11.1465 45.4873 11.1382 45.5721 11.1324C45.6565 11.127 45.7416 11.1243 45.826 11.1243C45.9953 11.1243 46.165 11.1408 46.3345 11.1738C46.5034 11.207 46.657 11.2731 46.7951 11.3724C46.9323 11.4716 47.0436 11.6067 47.1284 11.7776C47.2131 11.9486 47.2553 12.1719 47.2553 12.4475V13.6219H49.4789V15.2925H47.2553V18.8197C47.2553 19.5891 47.557 19.9735 48.1606 19.9735C48.3087 19.9735 48.4487 19.949 48.5814 19.8991C48.7136 19.8496 48.8327 19.7946 48.9386 19.7336C49.0448 19.6731 49.1374 19.6098 49.2169 19.5437C49.2961 19.4774 49.3516 19.4279 49.3831 19.3947C49.5422 19.6376 49.6639 19.8476 49.7487 20.0248C49.8332 20.2025 49.8756 20.369 49.8756 20.5247C49.8756 20.6695 49.8202 20.8114 49.7089 20.9507C49.5978 21.0897 49.4413 21.2177 49.2405 21.3347C49.0392 21.4516 48.7957 21.5461 48.5099 21.6185C48.2242 21.6909 47.9116 21.727 47.5729 21.727C46.9163 21.727 46.4056 21.5948 46.0403 21.3302C45.6753 21.0655 45.4182 20.7181 45.2704 20.2879ZM41.3484 17.4427C41.3484 17.112 41.3219 16.8036 41.2694 16.5166C41.2169 16.23 41.13 15.9819 41.009 15.7723C40.8878 15.5628 40.7246 15.4001 40.5193 15.2842C40.3139 15.1684 40.0641 15.1106 39.7694 15.1106C39.3273 15.1106 39.0194 15.1991 38.8455 15.3753C38.6721 15.5518 38.5851 15.7448 38.5851 15.9543V19.461C38.6695 19.5492 38.8191 19.6538 39.035 19.775C39.2509 19.8964 39.5007 19.9569 39.7851 19.9569C40.3219 19.9569 40.7167 19.7368 40.9694 19.2955C41.2223 18.8544 41.3484 18.2368 41.3484 17.4427ZM38.4899 14.3827C38.6587 14.1735 38.9227 13.9611 39.2814 13.746C39.6402 13.5309 40.0938 13.4233 40.643 13.4233C41.0336 13.4233 41.4056 13.4925 41.7591 13.6302C42.1124 13.7681 42.4266 13.9916 42.7008 14.3001C42.9755 14.6089 43.1945 15.017 43.3583 15.5241C43.5217 16.0314 43.6033 16.6545 43.6033 17.3932C43.6033 18.2532 43.5084 18.9618 43.3185 19.5188C43.1283 20.0757 42.8832 20.517 42.5826 20.8422C42.2816 21.1673 41.9464 21.3963 41.5772 21.5286C41.2077 21.6606 40.8383 21.727 40.4691 21.727C40.163 21.727 39.8965 21.6911 39.6696 21.6196C39.4426 21.5476 39.2499 21.468 39.0919 21.3795C38.9333 21.2914 38.8121 21.2034 38.7276 21.1149C38.6434 21.0268 38.5905 20.966 38.5696 20.9329V24.9991H36.4097V13.655C36.4629 13.6442 36.5267 13.633 36.6017 13.622C36.6657 13.6111 36.7403 13.6028 36.8258 13.5971C36.9111 13.5916 37.0126 13.5888 37.1296 13.5888C37.4815 13.5888 37.7801 13.6496 38.0258 13.7707C38.2708 13.8922 38.4259 14.0962 38.4899 14.3827ZM32.5032 17.6414H32.2811C32.2064 17.6414 32.1325 17.6469 32.0587 17.6581C31.7938 17.6804 31.5317 17.7132 31.2722 17.7573C31.0129 17.8013 30.7826 17.8785 30.5816 17.9887C30.3805 18.0992 30.2166 18.2426 30.0893 18.4187C29.9623 18.5953 29.8988 18.8213 29.8988 19.0971C29.8988 19.4058 29.9834 19.6676 30.1529 19.8826C30.3221 20.0977 30.6079 20.2051 31.0106 20.2051C31.2113 20.2051 31.4021 20.178 31.5823 20.1224C31.7619 20.0674 31.921 19.9956 32.0587 19.9076C32.1958 19.8193 32.3046 19.723 32.384 19.618C32.4635 19.5135 32.5032 19.4169 32.5032 19.3286V17.6414ZM34.5358 19.5601C34.5358 20.4311 34.6576 21.0655 34.9012 21.4623C34.7105 21.5391 34.5332 21.5947 34.3689 21.6277C34.205 21.6606 34.0329 21.6771 33.853 21.6771C33.472 21.6771 33.1834 21.6002 32.9877 21.4458C32.7918 21.2914 32.6672 21.0708 32.6145 20.7838C32.3812 21.038 32.0746 21.2527 31.6934 21.4293C31.3121 21.6055 30.8463 21.6941 30.2959 21.6941C30.0101 21.6941 29.7241 21.6527 29.4383 21.5705C29.1526 21.4877 28.8929 21.3534 28.6601 21.1665C28.4269 20.9796 28.2365 20.7294 28.0885 20.4162C27.9399 20.1027 27.8661 19.7209 27.8661 19.2703C27.8661 18.7096 27.9957 18.2532 28.2551 17.9017C28.5145 17.5499 28.8399 17.2725 29.2318 17.0688C29.6234 16.8656 30.0469 16.7259 30.5024 16.6487C30.9574 16.5718 31.3758 16.5224 31.757 16.5002C31.884 16.489 32.0083 16.4837 32.1301 16.4837H32.4713V16.1824C32.4713 15.7586 32.3627 15.4575 32.1459 15.2791C31.9288 15.1008 31.5765 15.0114 31.0898 15.0114C30.6346 15.0114 30.2293 15.0887 29.8751 15.243C29.5202 15.3975 29.1737 15.5738 28.835 15.7723C28.6864 15.585 28.5672 15.3782 28.4775 15.1519C28.3875 14.9262 28.3425 14.7578 28.3425 14.6475C28.3425 14.4931 28.4245 14.3444 28.5886 14.2009C28.7525 14.0577 28.9778 13.9281 29.2635 13.8121C29.5497 13.6964 29.8777 13.6029 30.2483 13.531C30.6189 13.4594 31.0106 13.4235 31.4235 13.4235C31.995 13.4235 32.4795 13.4842 32.8766 13.6055C33.2734 13.727 33.5965 13.9143 33.8452 14.1678C34.0939 14.4218 34.2712 14.7386 34.3773 15.1189C34.4829 15.4994 34.5358 15.9433 34.5358 16.4503V19.5601ZM26.401 20.8209C26.338 20.8868 26.2327 20.9689 26.0853 21.0675C25.9379 21.1663 25.746 21.2649 25.5091 21.3636C25.2726 21.4623 24.9827 21.5471 24.6411 21.6187C24.2989 21.6896 23.907 21.7253 23.4649 21.7253C22.6126 21.7253 21.8759 21.5826 21.2552 21.2978C20.6339 21.013 20.121 20.6155 19.7159 20.106C19.3109 19.5962 19.0134 18.9935 18.8241 18.2972C18.6346 17.6013 18.54 16.8368 18.54 16.0036C18.54 15.1707 18.6424 14.4006 18.8476 13.6936C19.0528 12.9866 19.3608 12.3756 19.7712 11.8601C20.1816 11.3451 20.6946 10.9423 21.3103 10.6517C21.9261 10.3615 22.6494 10.2161 23.4809 10.2161C23.8913 10.2161 24.2622 10.2545 24.5937 10.3311C24.9252 10.4079 25.2144 10.4984 25.4619 10.6024C25.7089 10.7068 25.9142 10.8161 26.0777 10.9313C26.2407 11.0464 26.364 11.1425 26.4484 11.2189C26.5431 11.3068 26.6245 11.4109 26.6933 11.5313C26.7616 11.6521 26.7958 11.7837 26.7958 11.9259C26.7958 12.1454 26.7168 12.3645 26.559 12.5837C26.4013 12.803 26.2276 13.0058 26.0379 13.192C25.9116 13.0605 25.7699 12.9265 25.612 12.7892C25.454 12.6523 25.2776 12.5319 25.0831 12.4275C24.8883 12.3235 24.6672 12.2359 24.4201 12.1644C24.1726 12.0933 23.8966 12.0575 23.5913 12.0575C23.0546 12.0575 22.605 12.1701 22.2417 12.3946C21.8787 12.6194 21.5866 12.9125 21.3656 13.2743C21.1446 13.636 20.9867 14.0497 20.892 14.5156C20.7973 14.9816 20.7499 15.4557 20.7499 15.9378C20.7499 16.4533 20.7973 16.9462 20.892 17.4175C20.9867 17.8888 21.1498 18.3057 21.3814 18.6669C21.6126 19.0287 21.9154 19.3193 22.2892 19.5384C22.6625 19.758 23.1281 19.8673 23.686 19.8673C23.9805 19.8673 24.2515 19.8291 24.499 19.7522C24.746 19.6758 24.9647 19.5824 25.1541 19.4726C25.3437 19.3634 25.5093 19.2483 25.6511 19.1277C25.7932 19.0069 25.9116 18.903 26.0066 18.8149C26.0695 18.8918 26.1432 18.9852 26.2274 19.0948C26.3122 19.2053 26.3914 19.3204 26.4641 19.4401C26.5377 19.5607 26.6008 19.6811 26.6537 19.8015C26.7063 19.9225 26.7325 20.0318 26.7325 20.1304C26.7325 20.273 26.7063 20.3934 26.6537 20.4921C26.6008 20.5908 26.5166 20.7006 26.401 20.8209Z" fill="#8799B5"/>
</g>
<path fill-rule="evenodd" clip-rule="evenodd" d="M94.9565 9.35396L97.0478 13.4333L101.073 13.826C101.268 13.842 101.437 13.9686 101.504 14.1502C101.571 14.3319 101.525 14.5354 101.385 14.6715L98.0728 17.9041L99.3009 22.2967C99.3523 22.487 99.2855 22.6893 99.1302 22.8134C98.975 22.9376 98.7603 22.9606 98.5816 22.8721L94.5009 20.8825L90.4259 22.8696C90.2473 22.9581 90.0325 22.9352 89.8773 22.811C89.7221 22.6869 89.6552 22.4845 89.7065 22.2943L90.9347 17.9016L87.6197 14.669C87.4802 14.533 87.4339 14.3294 87.501 14.1478C87.5682 13.9661 87.7365 13.8395 87.9322 13.8235L91.9572 13.4309L94.0453 9.35396C94.1329 9.18558 94.3088 9.07965 94.5009 9.07965C94.693 9.07965 94.869 9.18558 94.9565 9.35396Z" fill="#FFC744"/>
<path d="M117.532 19.564H115.992V22H114.718V19.564H110.266V18.402L114.27 12.564H115.992V18.5H117.532V19.564ZM111.498 18.5H114.732V17.212C114.732 16.05 114.746 14.874 114.774 13.698H114.746C114.032 14.804 113.318 15.868 112.576 16.946L111.498 18.5ZM120.199 22H118.687V20.362H120.199V22ZM124.954 12.368C126.774 12.368 128.076 13.418 128.076 14.958C128.076 15.98 127.432 16.722 126.424 17.1V17.128C127.586 17.478 128.258 18.29 128.258 19.452C128.258 21.104 126.914 22.196 124.954 22.196C122.994 22.196 121.664 21.104 121.664 19.452C121.664 18.29 122.336 17.478 123.484 17.128V17.1C122.49 16.722 121.846 15.98 121.846 14.958C121.846 13.418 123.148 12.368 124.954 12.368ZM124.954 13.474C123.862 13.474 123.12 14.076 123.12 15C123.12 15.98 123.834 16.596 124.954 16.596C126.074 16.596 126.788 15.98 126.788 15C126.788 14.076 126.046 13.474 124.954 13.474ZM124.954 17.688C123.778 17.688 122.966 18.374 122.966 19.368C122.966 20.404 123.764 21.076 124.954 21.076C126.144 21.076 126.942 20.404 126.942 19.368C126.942 18.374 126.13 17.688 124.954 17.688Z" fill="#F4F4F4"/>
<defs>
<clipPath id="clip0_22419_8129">
<rect width="79" height="18" fill="white" transform="translate(0 7)"/>
</clipPath>
</defs>
</svg>
