<svg width="133" height="51" viewBox="0 0 133 51" fill="none" xmlns="http://www.w3.org/2000/svg">
<mask id="mask0_22399_4645" style="mask-type:luminance" maskUnits="userSpaceOnUse" x="0" y="0" width="133" height="23">
<path d="M133 0H0V23H133V0Z" fill="white"/>
</mask>
<g mask="url(#mask0_22399_4645)">
<path d="M130.794 11.7949C129.64 11.7949 128.711 10.8669 128.711 9.71188C128.711 8.55788 129.64 7.62988 130.794 7.62988C131.947 7.62988 132.876 8.55788 132.876 9.71188C132.854 10.8669 131.925 11.7949 130.794 11.7949ZM130.794 7.85488C129.774 7.85488 128.96 8.71588 128.96 9.71088C128.96 10.7299 129.797 11.5679 130.794 11.5679C131.789 11.5679 132.627 10.7089 132.627 9.71088C132.627 8.71588 131.789 7.85488 130.794 7.85488ZM131.337 10.7989L130.772 9.86988H130.385V10.7989H130.136V8.55788H130.861C131.248 8.55788 131.564 8.82888 131.564 9.21488C131.564 9.55488 131.337 9.75888 131.043 9.84888L131.632 10.7999L131.337 10.7989ZM130.839 8.80788H130.385V9.62188H130.839C131.11 9.62188 131.316 9.46288 131.316 9.21388C131.315 8.98888 131.109 8.80788 130.839 8.80788Z" fill="#8799B5"/>
<path d="M100.999 7.69745C100.93 7.69745 100.906 7.72045 100.274 7.74245C99.6169 7.76445 98.4159 7.78745 95.9239 7.78745H94.7709H94.0679H92.9139C90.4449 7.78745 89.2249 7.76445 88.5659 7.74245C87.9319 7.72045 87.9109 7.69745 87.8419 7.69745C87.5469 7.69745 87.5469 7.87945 87.5469 8.44545V10.6404C87.5469 10.7534 87.5469 11.0484 87.7959 11.0484C88.0679 11.0484 88.1129 10.9574 88.5439 10.0744C88.8149 9.46345 89.3809 8.57945 92.6439 8.53545C92.9809 8.55745 93.1179 8.62545 93.1179 9.14645V20.2864C93.1179 21.2144 93.1179 21.8704 91.9189 21.9384C91.4199 21.9834 91.0799 22.0044 91.0799 22.3444C91.0799 22.7074 91.3969 22.7074 91.5769 22.7074C92.0319 22.7074 93.9769 22.6174 94.3859 22.6174C95.1789 22.6174 96.4229 22.7074 97.2169 22.7074C97.3949 22.7074 97.7149 22.7074 97.7149 22.3444C97.7149 21.9834 97.3749 21.9594 96.8759 21.9384C95.6749 21.8704 95.6749 21.2134 95.6749 20.2394V9.32745C95.6749 8.69245 95.7449 8.57945 96.4449 8.53545C99.4339 8.62545 99.9759 9.46345 100.249 10.0524C100.679 10.9354 100.725 11.0254 100.997 11.0254C101.247 11.0254 101.247 10.7314 101.247 10.6194V8.42145C101.292 7.87945 101.292 7.69745 100.999 7.69745Z" fill="#8799B5"/>
<path d="M75.1192 18.9044C74.8932 18.9044 74.8482 18.9944 74.4172 19.8324C73.3542 21.8694 71.8822 21.8694 70.8182 21.8694C68.8012 21.8694 68.3032 21.5984 68.3032 19.8984V15.7774C68.3032 15.0544 68.4842 15.0544 69.6392 15.0544C71.6082 15.0544 72.2652 15.0754 72.7852 16.9334C72.8982 17.3864 73.0562 17.4994 73.2372 17.4994C73.5342 17.4994 73.5342 17.1594 73.5342 17.0244C73.5342 16.8404 73.4632 16.0044 73.4632 15.8214C73.4632 15.3034 73.6242 12.8354 73.6242 12.4954C73.6242 12.2244 73.5122 12.1554 73.3532 12.1554C73.2392 12.1554 73.1022 12.2004 72.9902 12.5184C72.5592 13.7864 72.3342 14.3074 69.6852 14.3074C68.3042 14.3074 68.3042 14.1254 68.3042 13.3544V9.89241C68.3042 8.69241 68.3932 8.53341 69.5932 8.53341C72.9892 8.53341 73.5782 9.44041 73.8512 10.0734C74.2812 10.9564 74.3262 11.0464 74.5972 11.0464C74.8462 11.0464 74.8462 10.7524 74.8462 10.6384V8.44441C74.8462 7.90141 74.8462 7.69641 74.5512 7.69641C74.4832 7.69641 74.4612 7.71941 73.8272 7.74141C73.1712 7.76341 71.9482 7.78641 69.4802 7.78641H68.3252C66.2882 7.78641 65.2682 7.76341 64.7242 7.74141C64.2042 7.71941 64.1812 7.69641 64.1352 7.69641C63.9772 7.69641 63.6602 7.69641 63.6602 8.03641C63.6602 8.39841 64.0002 8.42141 64.5212 8.44441C65.7202 8.51241 65.7202 9.16841 65.7202 10.1434V20.2644C65.7202 21.2374 65.7202 21.8934 64.5212 21.9614C64.0212 22.0064 63.6602 22.0294 63.6602 22.3694C63.6602 22.7304 63.9772 22.7304 64.1582 22.7304C64.3172 22.7304 64.5212 22.7094 64.9062 22.6854C65.2912 22.6614 65.8792 22.6384 66.8762 22.6384H67.1702C67.3062 22.6384 68.4402 22.6614 69.7962 22.6854C71.1772 22.7064 72.8522 22.7304 74.0742 22.7304C74.7782 22.7304 75.0032 22.4594 75.0252 22.0054C75.0942 21.1224 75.3662 19.5834 75.3662 19.2674C75.3922 19.1074 75.3232 18.9044 75.1192 18.9044Z" fill="#8799B5"/>
<path d="M114.22 18.9044C113.992 18.9044 113.948 18.9944 113.517 19.8324C112.453 21.8694 110.98 21.8694 109.916 21.8694C107.9 21.8694 107.403 21.5984 107.403 19.8984V15.7774C107.403 15.0544 107.585 15.0544 108.738 15.0544C110.708 15.0544 111.366 15.0754 111.885 16.9334C111.997 17.3864 112.157 17.4994 112.337 17.4994C112.632 17.4994 112.632 17.1594 112.632 17.0244C112.632 16.8404 112.564 16.0044 112.564 15.8214C112.564 15.3034 112.722 12.8354 112.722 12.4954C112.722 12.2244 112.611 12.1554 112.452 12.1554C112.338 12.1554 112.204 12.2004 112.092 12.5184C111.66 13.7864 111.434 14.3074 108.784 14.3074C107.404 14.3074 107.404 14.1254 107.404 13.3544V9.89241C107.404 8.69241 107.494 8.53341 108.694 8.53341C112.091 8.53341 112.677 9.44041 112.95 10.0734C113.382 10.9564 113.425 11.0464 113.697 11.0464C113.946 11.0464 113.946 10.7524 113.946 10.6384V8.44441C113.946 7.90141 113.946 7.69641 113.652 7.69641C113.584 7.69641 113.561 7.71941 112.926 7.74141C112.271 7.76341 111.047 7.78641 108.58 7.78641H107.425C105.387 7.78641 104.369 7.76341 103.823 7.74141C103.303 7.71941 103.28 7.69641 103.237 7.69641C103.077 7.69641 102.758 7.69641 102.758 8.03641C102.758 8.39841 103.099 8.42141 103.619 8.44441C104.818 8.51241 104.818 9.16841 104.818 10.1434V20.2644C104.818 21.2374 104.818 21.8934 103.619 21.9614C103.121 22.0064 102.758 22.0294 102.758 22.3694C102.758 22.7304 103.076 22.7304 103.256 22.7304C103.416 22.7304 103.619 22.7094 104.005 22.6854C104.388 22.6624 104.977 22.6384 105.974 22.6384H106.271C106.406 22.6384 107.535 22.6614 108.896 22.6854C110.277 22.7064 111.954 22.7304 113.176 22.7304C113.877 22.7304 114.103 22.4594 114.126 22.0054C114.193 21.1224 114.466 19.5834 114.466 19.2674C114.49 19.1074 114.424 18.9044 114.22 18.9044Z" fill="#8799B5"/>
<path d="M82.6571 13.4695C80.7101 12.6565 79.2841 12.0435 79.2841 10.3225C79.2841 9.37247 80.0551 7.99147 81.9561 8.01347C83.9931 8.03547 84.4241 9.37247 84.7191 10.3225C84.9671 11.0705 85.0591 11.2285 85.3081 11.2285C85.6471 11.2285 85.6471 11.0245 85.6471 10.5035C85.6471 8.35247 85.6471 8.12747 85.3511 7.96847C85.0131 7.78647 83.5651 7.40247 82.1611 7.40247C79.0591 7.40247 77.3381 9.34947 77.3381 11.6125C77.3381 14.1945 79.2611 15.1685 81.2541 16.0285C83.0191 16.8425 84.6741 17.7705 84.6741 19.6735C84.6741 21.6445 82.7481 22.3215 81.7311 22.3215C79.9881 22.3215 78.3131 20.8505 77.8591 18.7215C77.8151 18.4945 77.7681 18.2465 77.5651 18.2465C77.2691 18.2465 77.2491 18.5865 77.2491 18.6745C77.2261 19.5595 77.3391 20.6005 77.3861 20.9165C77.4521 21.5255 77.5431 22.0255 77.8161 22.2075C78.2441 22.5235 79.4681 22.9985 81.3691 22.9985C84.6301 22.9985 86.6231 20.7365 86.6231 18.0195C86.5971 15.2585 84.0381 14.0595 82.6571 13.4695Z" fill="#8799B5"/>
<path d="M25.0623 7.40247C20.3763 7.40247 16.8203 10.7765 16.8203 15.1685C16.8203 19.8325 20.7593 23.0005 24.9943 23.0005C29.1143 23.0005 33.1223 19.6725 33.1223 14.9415C33.1443 10.7295 29.5903 7.40247 25.0623 7.40247ZM25.1973 22.3445C21.9823 22.3445 19.6733 18.6105 19.6733 14.6705C19.6733 11.2055 21.8243 8.08247 24.7903 8.08247C28.5933 8.08247 30.2913 12.1585 30.2913 15.0555C30.2913 18.5635 28.5253 22.3445 25.1973 22.3445Z" fill="#8799B5"/>
<path d="M15.304 1.85547C15.259 1.85547 15.236 1.90047 14.307 1.92347C13.402 1.94547 11.591 1.99047 7.991 1.99047H7.245C3.826 1.99047 2.558 1.94447 1.675 1.92347C0.814 1.87847 0.769 1.85547 0.702 1.85547C0.453 1.85547 0 1.85547 0 2.33147C0 2.80647 0.521 2.85247 1.246 2.92047C2.966 3.03347 2.966 3.96147 2.966 5.38747V14.7155V19.7195C2.966 20.8735 2.966 21.6665 1.494 21.7565C0.883 21.8245 0.475 21.8465 0.475 22.2545C0.475 22.6845 0.86 22.6845 1.086 22.6845C1.653 22.6845 4.097 22.5735 4.595 22.5735C5.569 22.5735 7.154 22.6845 8.127 22.6845C8.354 22.6845 8.738 22.6845 8.738 22.2545C8.738 21.8015 8.331 21.7775 7.697 21.7565C6.225 21.6665 6.225 20.8735 6.225 19.6745V14.7365V14.3535C6.225 13.3785 6.225 12.9725 6.791 12.8355C7.153 12.7455 8.761 12.7455 9.779 12.7455C10.64 12.7455 12.859 12.7455 13.334 14.6245C13.402 14.8065 13.629 15.6885 13.718 15.9385C13.786 16.1165 13.922 16.5025 14.262 16.4815C14.669 16.4585 14.669 16.0735 14.669 15.8235L14.533 14.1945C14.465 13.4015 14.465 12.8135 14.465 12.4975C14.465 11.9755 14.579 9.62047 14.579 9.14547C14.579 8.80547 14.465 8.57947 14.172 8.55547C13.854 8.53347 13.696 8.82647 13.629 9.12047C13.198 10.9095 12.699 11.6795 9.893 11.6795C9.373 11.6795 7.312 11.6795 6.791 11.6135C6.339 11.5455 6.249 11.5005 6.249 9.64447V4.79847C6.249 3.16847 6.838 3.10147 8.014 3.10147C13.403 3.10147 13.856 3.84847 14.874 6.15747C15.01 6.45147 15.145 6.85947 15.531 6.85947C15.916 6.85947 15.916 6.31647 15.916 6.20247V2.48947C15.893 2.03747 15.849 1.85547 15.304 1.85547Z" fill="#8799B5"/>
<path d="M47.1145 21.9828C46.4355 21.8928 46.1175 21.2798 45.6195 20.4418L43.2875 16.3248C42.7445 15.3268 42.4515 15.1688 42.1335 14.9868C42.9485 14.8288 45.4165 14.2408 45.4165 11.4318C45.4165 10.5948 45.0535 7.6748 40.8205 7.6748C40.0955 7.6748 36.9265 7.7648 36.2695 7.7648C35.9755 7.7648 34.7985 7.6748 34.5705 7.6748C33.7785 7.6748 33.6875 7.6748 33.6875 8.0138C33.6875 8.3538 34.0275 8.37581 34.5485 8.39981C35.7245 8.46681 35.7245 9.1238 35.7245 10.0988V20.2648C35.7245 21.2588 35.7245 21.8938 34.5485 21.9858C34.0495 22.0068 33.6875 22.0308 33.6875 22.3708C33.6875 22.7318 34.0055 22.7108 34.1865 22.7108C34.6165 22.7108 36.5635 22.6208 36.9705 22.6208C37.0615 22.6208 39.3935 22.7108 39.8455 22.7108C40.0265 22.7108 40.3445 22.7318 40.3445 22.3928C40.3445 22.0318 40.0045 22.0078 39.4835 21.9868C38.2845 21.9168 38.2845 21.2598 38.2845 20.2658V15.9628C38.2845 15.5568 38.3295 15.4198 38.7375 15.4198C39.8245 15.4198 39.9385 15.5098 40.4585 16.5528L43.3555 22.0078C43.6265 22.5058 43.7175 22.7328 44.1475 22.7328C44.3745 22.7328 47.0005 22.7328 47.2945 22.7328C47.4525 22.7328 47.7015 22.6878 47.7015 22.4378C47.7485 22.1648 47.6115 22.0728 47.1145 21.9828ZM39.5065 14.7838C38.3075 14.7838 38.3075 14.7368 38.3075 13.9008V9.8708C38.3075 8.9418 38.3295 8.3538 39.4395 8.3538C42.4045 8.3538 42.7445 10.9118 42.7445 11.7728C42.7445 14.7838 40.3675 14.7838 39.5065 14.7838Z" fill="#8799B5"/>
<path d="M62.1457 21.9828C61.4677 21.8928 61.1497 21.2798 60.6507 20.4418L58.3187 16.3248C57.7757 15.3268 57.4827 15.1688 57.1657 14.9868C57.9797 14.8288 60.4478 14.2408 60.4478 11.4318C60.4478 10.5948 60.0857 7.6748 55.8527 7.6748C55.1267 7.6748 51.9587 7.7648 51.3007 7.7648C51.0067 7.7648 49.8297 7.6748 49.6027 7.6748C48.8097 7.6748 48.7188 7.6748 48.7188 8.0138C48.7188 8.3538 49.0588 8.37581 49.5798 8.39981C50.7568 8.46681 50.7567 9.1238 50.7567 10.0988V20.2648C50.7567 21.2588 50.7568 21.8938 49.5798 21.9858C49.0808 22.0068 48.7188 22.0308 48.7188 22.3708C48.7188 22.7318 49.0368 22.7108 49.2188 22.7108C49.6488 22.7108 51.5947 22.6208 52.0017 22.6208C52.0927 22.6208 54.4258 22.7108 54.8778 22.7108C55.0608 22.7108 55.3757 22.7318 55.3757 22.3928C55.3757 22.0318 55.0357 22.0078 54.5157 21.9868C53.3157 21.9168 53.3158 21.2598 53.3158 20.2658V15.9628C53.3158 15.5568 53.3617 15.4198 53.7677 15.4198C54.8558 15.4198 54.9688 15.5098 55.4888 16.5528L58.3867 22.0078C58.6577 22.5058 58.7477 22.7328 59.1787 22.7328C59.4047 22.7328 62.0317 22.7328 62.3247 22.7328C62.4837 22.7328 62.7327 22.6878 62.7327 22.4378C62.7577 22.1648 62.6447 22.0728 62.1457 21.9828ZM54.5387 14.7838C53.3377 14.7838 53.3377 14.7368 53.3377 13.9008V9.8708C53.3377 8.9418 53.3607 8.3538 54.4697 8.3538C57.4347 8.3538 57.7767 10.9118 57.7767 11.7728C57.7537 14.7838 55.3997 14.7838 54.5387 14.7838Z" fill="#8799B5"/>
<path d="M129.255 21.9824C128.576 21.8924 128.259 21.2794 127.761 20.4414L125.451 16.3454C124.907 15.3494 124.613 15.1914 124.298 15.0094C125.111 14.8494 127.581 14.2614 127.581 11.4544C127.581 10.6174 127.218 7.69641 122.983 7.69641C122.258 7.69641 119.089 7.78741 118.433 7.78741C118.138 7.78741 116.96 7.69641 116.735 7.69641C115.942 7.69641 115.852 7.69641 115.852 8.03641C115.852 8.37541 116.191 8.39841 116.711 8.42141C117.888 8.48841 117.888 9.14641 117.888 10.1194V20.2854C117.888 21.2794 117.888 21.9144 116.711 22.0044C116.213 22.0294 115.852 22.0514 115.852 22.3914C115.852 22.7524 116.167 22.7314 116.35 22.7314C116.78 22.7314 118.727 22.6394 119.133 22.6394C119.225 22.6394 121.557 22.7314 122.009 22.7314C122.191 22.7314 122.507 22.7524 122.507 22.4154C122.507 22.0524 122.169 22.0304 121.647 22.0054C120.449 21.9394 120.449 21.2804 120.449 20.2864V15.9854C120.449 15.5754 120.492 15.4404 120.9 15.4404C121.988 15.4404 122.101 15.5324 122.622 16.5734L125.519 22.0304C125.79 22.5284 125.881 22.7534 126.311 22.7534C126.54 22.7534 129.165 22.7534 129.458 22.7534C129.616 22.7534 129.865 22.7084 129.865 22.4584C129.89 22.1644 129.775 22.0724 129.255 21.9824ZM121.648 14.7834C120.45 14.7834 120.45 14.7364 120.45 13.9004V9.87041C120.45 8.94141 120.472 8.35341 121.58 8.35341C124.548 8.35341 124.887 10.9114 124.887 11.7724C124.886 14.7834 122.508 14.7834 121.648 14.7834Z" fill="#8799B5"/>
</g>
<path d="M11.172 45H8.498L7.574 41.052C7.238 39.638 6.944 38.21 6.706 36.782H6.678C6.44 38.21 6.146 39.638 5.81 41.052L4.886 45H2.212L0.126 35.032H2.142L2.856 38.658C3.136 40.086 3.388 41.556 3.584 42.97H3.612C3.864 41.556 4.172 40.1 4.522 38.658L5.39 35.032H7.994L8.862 38.658C9.212 40.1 9.52 41.556 9.772 42.97H9.8C9.996 41.556 10.248 40.086 10.528 38.658L11.242 35.032H13.258L11.172 45ZM23.4427 42.564H19.6207L18.8367 45H16.6807L20.1387 35.032H22.9107L26.3687 45H24.2127L23.4427 42.564ZM22.8827 40.8L22.6727 40.142C22.2667 38.854 21.8747 37.538 21.5387 36.25H21.5107C21.1747 37.538 20.7967 38.854 20.3907 40.142L20.1807 40.8H22.8827ZM35.1212 45H32.5452L29.4512 35.032H31.5512L32.7412 38.91C33.1612 40.254 33.5252 41.626 33.8192 42.984H33.8472C34.1412 41.626 34.5192 40.254 34.9252 38.91L36.1152 35.032H38.2152L35.1212 45ZM49.5575 36.796H44.7275V39.05H49.2355V40.8H44.7275V43.236H49.6835V45H42.6695V35.032H49.5575V36.796ZM63.8134 43.236H68.5174V45H61.7554V35.032H63.8134V43.236ZM80.1962 36.796H75.3662V39.05H79.8742V40.8H75.3662V43.236H80.3222V45H73.3082V35.032H80.1962V36.796ZM91.3235 42.564H87.5015L86.7175 45H84.5615L88.0195 35.032H90.7915L94.2495 45H92.0935L91.3235 42.564ZM90.7635 40.8L90.5535 40.142C90.1475 38.854 89.7555 37.538 89.4195 36.25H89.3915C89.0555 37.538 88.6775 38.854 88.2715 40.142L88.0615 40.8H90.7635ZM98.6695 35.032H101.987C105.375 35.032 107.279 36.824 107.279 40.016C107.279 43.208 105.375 45 101.987 45H98.6695V35.032ZM100.713 36.796V43.236H101.959C104.101 43.236 105.151 42.172 105.151 40.016C105.151 37.86 104.101 36.796 101.959 36.796H100.713ZM119.339 36.796H114.509V39.05H119.017V40.8H114.509V43.236H119.465V45H112.451V35.032H119.339V36.796ZM124.81 35.032H128.478C130.984 35.032 132.118 36.068 132.118 37.846C132.118 39.064 131.418 39.974 130.298 40.282V40.31C130.998 40.562 131.334 40.982 131.796 42.242L132.79 45H130.55L129.752 42.634C129.388 41.57 128.982 41.192 128.002 41.192H126.868V45H124.81V35.032ZM126.868 36.698V39.554H128.324C129.57 39.554 130.046 38.994 130.046 38.084C130.046 37.118 129.388 36.698 128.212 36.698H126.868Z" fill="#8799B5"/>
</svg>
