<svg width="83" height="32" viewBox="0 0 83 32" fill="none" xmlns="http://www.w3.org/2000/svg">
<g clip-path="url(#clip0_22419_8123)">
<path fill-rule="evenodd" clip-rule="evenodd" d="M32 16C32 24.8366 24.8366 32 16 32C7.16345 32 0 24.8366 0 16C0 7.16345 7.16345 0 16 0C24.8366 0 32 7.16345 32 16ZM20.1925 12.256H22.9253V13.3888H18.7909V13.1968C18.7909 12.496 18.9285 11.9168 19.2101 11.456C19.4917 10.9952 19.9781 10.5888 20.6789 10.2336L21.0021 10.0768C21.5717 9.78878 21.7189 9.54238 21.7189 9.24478C21.7189 8.88958 21.4149 8.63358 20.9189 8.63358C20.3333 8.63358 19.8885 8.93758 19.5813 9.55838L18.7909 8.76478C18.9637 8.39358 19.2421 8.09598 19.6165 7.86558C19.9881 7.62863 20.4207 7.50519 20.8613 7.51038C21.4309 7.51038 21.9173 7.66078 22.3301 7.96478C22.7429 8.26878 22.9509 8.69118 22.9509 9.22558C22.9509 10.0768 22.4709 10.5984 21.5717 11.0592L21.0693 11.3152C20.5317 11.5872 20.2661 11.8272 20.1925 12.256ZM22.5589 14.6944H18.0341L15.7717 18.6112H20.2965L22.5589 22.5312L24.8213 18.6112L22.5589 14.6944ZM10.9384 16C10.9384 18.88 13.2841 21.2256 16.1641 21.2256C17.4143 21.2254 18.6228 20.7756 19.5689 19.9584L21.5465 23.3888C19.9849 24.5316 18.0992 25.146 16.1641 25.1424C11.1144 25.1424 7.02164 21.0496 7.02164 16C7.02164 10.9504 11.1144 6.85758 16.1641 6.85758C16.7647 6.85749 17.3638 6.91643 17.9529 7.03358L16.1641 10.7744C13.2841 10.7744 10.9384 13.12 10.9384 16Z" fill="#8799B5"/>
</g>
<path fill-rule="evenodd" clip-rule="evenodd" d="M48.4869 9.35396L50.7176 13.4333L55.0109 13.826C55.2196 13.842 55.3992 13.9686 55.4708 14.1502C55.5424 14.3319 55.493 14.5354 55.3442 14.6715L51.8109 17.9041L53.1209 22.2967C53.1757 22.487 53.1044 22.6893 52.9388 22.8134C52.7732 22.9376 52.5442 22.9606 52.3536 22.8721L48.0009 20.8825L43.6542 22.8696C43.4636 22.9581 43.2345 22.9352 43.069 22.811C42.9034 22.6869 42.8321 22.4845 42.8869 22.2943L44.1969 17.9016L40.6609 14.669C40.5121 14.533 40.4627 14.3294 40.5343 14.1478C40.6059 13.9661 40.7855 13.8395 40.9942 13.8235L45.2875 13.4309L47.5149 9.35396C47.6083 9.18558 47.7959 9.07965 48.0009 9.07965C48.2058 9.07965 48.3935 9.18558 48.4869 9.35396Z" fill="#FFC744"/>
<path d="M71.532 19.564H69.992V22H68.718V19.564H64.266V18.402L68.27 12.564H69.992V18.5H71.532V19.564ZM65.498 18.5H68.732V17.212C68.732 16.05 68.746 14.874 68.774 13.698H68.746C68.032 14.804 67.318 15.868 66.576 16.946L65.498 18.5ZM74.1993 22H72.6873V20.362H74.1993V22ZM78.9535 12.368C80.7735 12.368 82.0755 13.418 82.0755 14.958C82.0755 15.98 81.4315 16.722 80.4235 17.1V17.128C81.5855 17.478 82.2575 18.29 82.2575 19.452C82.2575 21.104 80.9135 22.196 78.9535 22.196C76.9935 22.196 75.6635 21.104 75.6635 19.452C75.6635 18.29 76.3355 17.478 77.4835 17.128V17.1C76.4895 16.722 75.8455 15.98 75.8455 14.958C75.8455 13.418 77.1475 12.368 78.9535 12.368ZM78.9535 13.474C77.8615 13.474 77.1195 14.076 77.1195 15C77.1195 15.98 77.8335 16.596 78.9535 16.596C80.0735 16.596 80.7875 15.98 80.7875 15C80.7875 14.076 80.0455 13.474 78.9535 13.474ZM78.9535 17.688C77.7775 17.688 76.9655 18.374 76.9655 19.368C76.9655 20.404 77.7635 21.076 78.9535 21.076C80.1435 21.076 80.9415 20.404 80.9415 19.368C80.9415 18.374 80.1295 17.688 78.9535 17.688Z" fill="#F4F4F4"/>
<defs>
<clipPath id="clip0_22419_8123">
<rect width="32" height="32" fill="white"/>
</clipPath>
</defs>
</svg>
