<svg width="75" height="32" viewBox="0 0 75 32" fill="none" xmlns="http://www.w3.org/2000/svg">
<g clip-path="url(#clip0_23296_17059)">
<path d="M42.1837 0.595642V15.4288H38.1182V0.595642H42.1837Z" fill="#8799B5"/>
<path d="M52.1826 5.23103C52.1436 4.74819 51.9608 4.37157 51.6341 4.10117C51.3125 3.83077 50.8225 3.69557 50.1644 3.69557C49.7452 3.69557 49.4015 3.74628 49.1333 3.84767C48.8701 3.94424 48.6751 4.07703 48.5484 4.24603C48.4216 4.41502 48.3558 4.60816 48.3509 4.82544C48.3412 5.00409 48.3729 5.16585 48.446 5.31071C48.524 5.45073 48.6459 5.57869 48.8116 5.69457C48.9773 5.80563 49.1894 5.90703 49.4478 5.99877C49.7062 6.09051 50.0133 6.1726 50.3692 6.24502L51.5977 6.50576C52.4264 6.67958 53.1356 6.90894 53.7255 7.19382C54.3155 7.4787 54.798 7.81428 55.1733 8.20056C55.5488 8.58201 55.8242 9.01175 55.9997 9.48977C56.1801 9.9678 56.2727 10.4893 56.2776 11.0542C56.2727 12.0295 56.0265 12.8552 55.539 13.5312C55.0515 14.2072 54.3545 14.7214 53.4476 15.074C52.5458 15.4264 51.4612 15.6027 50.1937 15.6027C48.892 15.6027 47.7562 15.4119 46.786 15.0304C45.8208 14.6491 45.0701 14.0623 44.5338 13.2705C44.0025 12.4737 43.7343 11.455 43.7295 10.214H47.5905C47.6148 10.6679 47.7294 11.0494 47.9341 11.3584C48.1389 11.6675 48.4265 11.9016 48.797 12.0609C49.1724 12.2203 49.6184 12.2999 50.1352 12.2999C50.569 12.2999 50.9321 12.2469 51.2246 12.1406C51.5171 12.0344 51.739 11.8871 51.8901 11.6988C52.0412 11.5105 52.1192 11.2956 52.1241 11.0542C52.1192 10.8273 52.0436 10.6293 51.8975 10.4603C51.7561 10.2865 51.5221 10.132 51.1955 9.99676C50.8688 9.85673 50.4277 9.72637 49.8719 9.60566L48.3802 9.28697C47.0542 9.00209 46.0086 8.52648 45.2432 7.86015C44.4827 7.189 44.1048 6.27399 44.1098 5.11516C44.1048 4.17359 44.3583 3.35033 44.8702 2.64537C45.387 1.93559 46.1011 1.38272 47.0128 0.986788C47.9293 0.590851 48.9798 0.392883 50.1644 0.392883C51.3734 0.392883 52.4191 0.593266 53.3015 0.994031C54.1838 1.39479 54.8639 1.95973 55.3416 2.68884C55.8242 3.41311 56.0679 4.26051 56.0728 5.23103H52.1826Z" fill="#8799B5"/>
<path d="M72.332 8.01226C72.332 9.66359 72.0078 11.0566 71.3594 12.1913C70.7111 13.3212 69.836 14.1782 68.7343 14.7625C67.6325 15.3419 66.404 15.6316 65.0488 15.6316C63.6838 15.6316 62.4505 15.3395 61.3488 14.7552C60.2519 14.1662 59.3793 13.3067 58.7309 12.1768C58.0874 11.0421 57.7656 9.65395 57.7656 8.01226C57.7656 6.36091 58.0874 4.9703 58.7309 3.84043C59.3793 2.70573 60.2519 1.84868 61.3488 1.26926C62.4505 0.685007 63.6838 0.392883 65.0488 0.392883C66.404 0.392883 67.6325 0.685007 68.7343 1.26926C69.836 1.84868 70.7111 2.70573 71.3594 3.84043C72.0078 4.9703 72.332 6.36091 72.332 8.01226ZM68.1493 8.01226C68.1493 7.12381 68.0298 6.37539 67.7909 5.767C67.5569 5.15379 67.2084 4.69024 66.7453 4.37639C66.287 4.05772 65.7215 3.89837 65.0488 3.89837C64.3761 3.89837 63.8082 4.05772 63.345 4.37639C62.8867 4.69024 62.5383 5.15379 62.2993 5.767C62.0653 6.37539 61.9483 7.12381 61.9483 8.01226C61.9483 8.90069 62.0653 9.65152 62.2993 10.2647C62.5383 10.8731 62.8867 11.3367 63.345 11.6553C63.8082 11.9692 64.3761 12.1261 65.0488 12.1261C65.7215 12.1261 66.287 11.9692 66.7453 11.6553C67.2084 11.3367 67.5569 10.8731 67.7909 10.2647C68.0298 9.65152 68.1493 8.90069 68.1493 8.01226Z" fill="#8799B5"/>
<path d="M41.1225 21.9162C41.5749 21.9193 42.015 21.9993 42.4428 22.1562C42.8737 22.3101 43.2615 22.5625 43.6062 22.9134C43.9509 23.2611 44.2248 23.7274 44.4279 24.3121C44.631 24.8969 44.7326 25.6201 44.7326 26.4819C44.7357 27.2944 44.6495 28.0207 44.4741 28.6609C44.3017 29.2979 44.054 29.8365 43.7308 30.2766C43.4077 30.7167 43.0183 31.0522 42.5629 31.283C42.1074 31.5138 41.5949 31.6293 41.0256 31.6293C40.4285 31.6293 39.8991 31.5123 39.4375 31.2784C38.9789 31.0445 38.6081 30.7244 38.3249 30.3182C38.0418 29.9119 37.8679 29.4472 37.8033 28.924H39.4883C39.5745 29.2995 39.7499 29.598 40.0146 29.8196C40.2823 30.0381 40.6193 30.1474 41.0256 30.1474C41.6811 30.1474 42.1858 29.8627 42.5398 29.2933C42.8937 28.724 43.0707 27.933 43.0707 26.9205H43.006C42.8552 27.1913 42.6598 27.4252 42.4197 27.6222C42.1797 27.8161 41.9073 27.9653 41.6026 28.07C41.301 28.1746 40.9809 28.2269 40.6424 28.2269C40.0884 28.2269 39.5898 28.0946 39.1467 27.8299C38.7066 27.5652 38.3572 27.2021 38.0987 26.7404C37.8433 26.2788 37.714 25.7509 37.7109 25.157C37.7109 24.5414 37.8525 23.989 38.1357 23.4996C38.4219 23.0072 38.8204 22.6194 39.3313 22.3363C39.8422 22.0501 40.4393 21.91 41.1225 21.9162ZM41.1271 23.3011C40.7947 23.3011 40.4947 23.3827 40.2269 23.5458C39.9622 23.7058 39.753 23.9244 39.5991 24.2013C39.4483 24.4753 39.3729 24.7815 39.3729 25.12C39.3759 25.4555 39.4513 25.7602 39.5991 26.0341C39.7499 26.308 39.9545 26.525 40.2131 26.685C40.4747 26.8451 40.7732 26.9251 41.1087 26.9251C41.358 26.9251 41.5903 26.8774 41.8058 26.782C42.0212 26.6866 42.2089 26.5542 42.369 26.3849C42.5321 26.2126 42.6583 26.0172 42.7475 25.7987C42.8398 25.5801 42.8845 25.3493 42.8814 25.1062C42.8814 24.783 42.8045 24.4845 42.6506 24.2106C42.4998 23.9367 42.292 23.7166 42.0273 23.5504C41.7657 23.3842 41.4657 23.3011 41.1271 23.3011ZM49.7646 31.68C49.0044 31.68 48.3519 31.4877 47.8072 31.103C47.2655 30.7152 46.8485 30.1566 46.5561 29.4272C46.2668 28.6947 46.1222 27.813 46.1222 26.782C46.1252 25.7509 46.2714 24.8738 46.5607 24.1506C46.8531 23.4242 47.2701 22.8703 47.8118 22.4886C48.3565 22.107 49.0075 21.9162 49.7646 21.9162C50.5217 21.9162 51.1726 22.107 51.7173 22.4886C52.2621 22.8703 52.6791 23.4242 52.9684 24.1506C53.2608 24.8769 53.407 25.754 53.407 26.782C53.407 27.8161 53.2608 28.6993 52.9684 29.4318C52.6791 30.1612 52.2621 30.7183 51.7173 31.103C51.1757 31.4877 50.5247 31.68 49.7646 31.68ZM49.7646 30.2351C50.3555 30.2351 50.8217 29.9442 51.1634 29.3626C51.508 28.7778 51.6804 27.9176 51.6804 26.782C51.6804 26.031 51.6019 25.4001 51.445 24.8892C51.288 24.3783 51.0664 23.9936 50.7802 23.7351C50.494 23.4735 50.1554 23.3427 49.7646 23.3427C49.1767 23.3427 48.712 23.6351 48.3704 24.2198C48.0288 24.8015 47.8564 25.6555 47.8533 26.782C47.8503 27.536 47.9257 28.17 48.0795 28.6839C48.2365 29.1979 48.4581 29.5857 48.7443 29.8473C49.0305 30.1058 49.3706 30.2351 49.7646 30.2351ZM58.4355 31.68C57.6753 31.68 57.0228 31.4877 56.4781 31.103C55.9364 30.7152 55.5194 30.1566 55.227 29.4272C54.9377 28.6947 54.7931 27.813 54.7931 26.782C54.7961 25.7509 54.9423 24.8738 55.2316 24.1506C55.524 23.4242 55.941 22.8703 56.4827 22.4886C57.0274 22.107 57.6784 21.9162 58.4355 21.9162C59.1926 21.9162 59.8435 22.107 60.3882 22.4886C60.933 22.8703 61.35 23.4242 61.6393 24.1506C61.9317 24.8769 62.0779 25.754 62.0779 26.782C62.0779 27.8161 61.9317 28.6993 61.6393 29.4318C61.35 30.1612 60.933 30.7183 60.3882 31.103C59.8466 31.4877 59.1956 31.68 58.4355 31.68ZM58.4355 30.2351C59.0264 30.2351 59.4926 29.9442 59.8343 29.3626C60.1789 28.7778 60.3513 27.9176 60.3513 26.782C60.3513 26.031 60.2728 25.4001 60.1159 24.8892C59.9589 24.3783 59.7373 23.9936 59.4511 23.7351C59.1649 23.4735 58.8263 23.3427 58.4355 23.3427C57.8476 23.3427 57.3829 23.6351 57.0413 24.2198C56.6997 24.8015 56.5273 25.6555 56.5242 26.782C56.5212 27.536 56.5966 28.17 56.7504 28.6839C56.9074 29.1979 57.129 29.5857 57.4152 29.8473C57.7014 30.1058 58.0415 30.2351 58.4355 30.2351ZM67.4572 22.0455V31.5H65.7445V23.712H65.6891L63.4778 25.1246V23.555L65.8276 22.0455H67.4572Z" fill="#8799B5"/>
<path d="M27.1314 4.95174C24.1633 2.01189 20.217 0.392883 16.0194 0.392883C11.8218 0.392883 7.87555 2.01189 4.90738 4.95174C1.9392 7.89158 0.304688 11.8004 0.304688 15.958C0.304688 20.1154 1.93926 24.0242 4.90738 26.9641C7.8755 29.904 11.8218 31.523 16.0194 31.523C20.217 31.523 24.1633 29.9039 27.1314 26.9641C30.0996 24.0242 31.7341 20.1154 31.7341 15.958C31.7341 11.8004 30.0996 7.89164 27.1314 4.95174ZM27.0006 24.1453C26.0608 23.5153 25.077 22.971 24.057 22.5165C24.5075 20.7766 24.775 18.8874 24.8417 16.9308H29.7343C29.5413 19.6264 28.553 22.1078 27.0006 24.1453ZM2.30451 16.9308H7.19706C7.26384 18.8874 7.53136 20.7766 7.98181 22.5165C6.96184 22.971 5.97807 23.5153 5.03825 24.1453C3.4858 22.1078 2.4975 19.6264 2.30451 16.9308ZM5.038 7.77083C5.97782 8.40085 6.96158 8.94521 7.98169 9.39969C7.53125 11.1395 7.26379 13.0285 7.197 14.9852H2.30451C2.4975 12.2895 3.48575 9.8084 5.038 7.77083ZM22.442 5.18187C22.0821 4.51355 21.6932 3.91046 21.2797 3.37529C22.9413 4.0593 24.4394 5.05692 25.698 6.29355C24.9843 6.75795 24.243 7.16721 23.4786 7.52082C23.1787 6.69004 22.8323 5.90674 22.442 5.18187ZM21.6461 8.24648C19.853 8.84185 17.9606 9.14822 16.0194 9.14822C14.0782 9.14822 12.1858 8.84185 10.3927 8.24648C11.6488 4.70465 13.7243 2.33851 16.0194 2.33851C18.3145 2.33851 20.3899 4.70465 21.6461 8.24648ZM9.16281 14.9852C9.22763 13.2618 9.46268 11.6154 9.83418 10.114C11.8068 10.7612 13.8868 11.0938 16.0194 11.0938C18.1521 11.0938 20.2319 10.7612 22.2046 10.114C22.5761 11.6154 22.8112 13.2618 22.876 14.9852H9.16281ZM22.876 16.9308C22.8111 18.6541 22.5761 20.3006 22.2045 21.8021C20.2316 21.1549 18.1518 20.822 16.0194 20.822C13.8869 20.822 11.8071 21.1549 9.83424 21.8021C9.46268 20.3006 9.22763 18.6541 9.16281 16.9308H22.876ZM9.5968 5.18187C9.20652 5.90674 8.86018 6.69004 8.56019 7.52076C7.79581 7.16721 7.0544 6.75789 6.34079 6.29349C7.59938 5.05681 9.09743 4.05924 10.7591 3.37523C10.3456 3.91046 9.95664 4.51355 9.5968 5.18187ZM8.56025 24.3954C8.86018 25.2261 9.20652 26.0093 9.59675 26.734C9.95664 27.4023 10.3455 28.0054 10.7591 28.5406C9.09756 27.8566 7.59962 26.8591 6.3411 25.6226C7.05471 25.1583 7.796 24.749 8.56025 24.3954ZM10.3928 23.6696C12.1861 23.0741 14.0784 22.7677 16.0194 22.7677C17.9604 22.7677 19.8527 23.0741 21.646 23.6696C20.3898 27.2113 18.3145 29.5774 16.0194 29.5774C13.7243 29.5774 11.6489 27.2113 10.3928 23.6696ZM22.442 26.734C22.8322 26.0093 23.1786 25.2261 23.4785 24.3954C24.2428 24.749 24.9841 25.1583 25.6976 25.6226C24.4391 26.8591 22.9412 27.8566 21.2797 28.5406C21.6932 28.0054 22.0822 27.4023 22.442 26.734ZM24.8417 14.9852C24.7749 13.0286 24.5075 11.1395 24.057 9.39969C25.0771 8.94521 26.061 8.40085 27.0007 7.77083C28.5529 9.80834 29.5412 12.2895 29.7343 14.9852H24.8417Z" fill="#8799B5"/>
</g>
<defs>
<clipPath id="clip0_23296_17059">
<rect width="75" height="32" fill="white"/>
</clipPath>
</defs>
</svg>
