<svg width="75" height="32" viewBox="0 0 75 32" fill="none" xmlns="http://www.w3.org/2000/svg">
<g clip-path="url(#clip0_22419_8071)">
<path d="M42.1837 0.595642V15.4288H38.1182V0.595642H42.1837Z" fill="#8799B5"/>
<path d="M52.1826 5.23103C52.1436 4.74819 51.9608 4.37157 51.6341 4.10117C51.3125 3.83077 50.8225 3.69557 50.1644 3.69557C49.7452 3.69557 49.4015 3.74628 49.1333 3.84767C48.8701 3.94424 48.6751 4.07703 48.5484 4.24603C48.4216 4.41502 48.3558 4.60816 48.3509 4.82544C48.3412 5.00409 48.3729 5.16585 48.446 5.31071C48.524 5.45073 48.6459 5.57869 48.8116 5.69457C48.9773 5.80563 49.1894 5.90703 49.4478 5.99877C49.7062 6.09051 50.0133 6.1726 50.3692 6.24502L51.5977 6.50576C52.4264 6.67958 53.1356 6.90894 53.7255 7.19382C54.3155 7.4787 54.798 7.81428 55.1733 8.20056C55.5488 8.58201 55.8242 9.01175 55.9997 9.48977C56.1801 9.9678 56.2727 10.4893 56.2776 11.0542C56.2727 12.0295 56.0265 12.8552 55.539 13.5312C55.0515 14.2072 54.3545 14.7214 53.4476 15.074C52.5458 15.4264 51.4612 15.6027 50.1937 15.6027C48.892 15.6027 47.7562 15.4119 46.786 15.0304C45.8208 14.6491 45.0701 14.0623 44.5338 13.2705C44.0025 12.4737 43.7343 11.455 43.7295 10.214H47.5905C47.6148 10.6679 47.7294 11.0494 47.9341 11.3584C48.1389 11.6675 48.4265 11.9016 48.797 12.0609C49.1724 12.2203 49.6184 12.2999 50.1352 12.2999C50.569 12.2999 50.9321 12.2469 51.2246 12.1406C51.5171 12.0344 51.739 11.8871 51.8901 11.6988C52.0412 11.5105 52.1192 11.2956 52.1241 11.0542C52.1192 10.8273 52.0436 10.6293 51.8975 10.4603C51.7561 10.2865 51.5221 10.132 51.1955 9.99676C50.8688 9.85673 50.4277 9.72637 49.8719 9.60566L48.3802 9.28697C47.0542 9.00209 46.0086 8.52648 45.2432 7.86015C44.4827 7.189 44.1048 6.27399 44.1098 5.11516C44.1048 4.17359 44.3583 3.35033 44.8702 2.64537C45.387 1.93559 46.1011 1.38272 47.0128 0.986788C47.9293 0.590851 48.9798 0.392883 50.1644 0.392883C51.3734 0.392883 52.4191 0.593266 53.3015 0.994031C54.1838 1.39479 54.8639 1.95973 55.3416 2.68884C55.8242 3.41311 56.0679 4.26051 56.0728 5.23103H52.1826Z" fill="#8799B5"/>
<path d="M72.332 8.01226C72.332 9.66359 72.0078 11.0566 71.3594 12.1913C70.7111 13.3212 69.836 14.1782 68.7343 14.7625C67.6325 15.3419 66.404 15.6316 65.0488 15.6316C63.6838 15.6316 62.4505 15.3395 61.3488 14.7552C60.2519 14.1662 59.3793 13.3067 58.7309 12.1768C58.0874 11.0421 57.7656 9.65395 57.7656 8.01226C57.7656 6.36091 58.0874 4.9703 58.7309 3.84043C59.3793 2.70573 60.2519 1.84868 61.3488 1.26926C62.4505 0.685007 63.6838 0.392883 65.0488 0.392883C66.404 0.392883 67.6325 0.685007 68.7343 1.26926C69.836 1.84868 70.7111 2.70573 71.3594 3.84043C72.0078 4.9703 72.332 6.36091 72.332 8.01226ZM68.1493 8.01226C68.1493 7.12381 68.0298 6.37539 67.7909 5.767C67.5569 5.15379 67.2084 4.69024 66.7453 4.37639C66.287 4.05772 65.7215 3.89837 65.0488 3.89837C64.3761 3.89837 63.8082 4.05772 63.345 4.37639C62.8867 4.69024 62.5383 5.15379 62.2993 5.767C62.0653 6.37539 61.9483 7.12381 61.9483 8.01226C61.9483 8.90069 62.0653 9.65152 62.2993 10.2647C62.5383 10.8731 62.8867 11.3367 63.345 11.6553C63.8082 11.9692 64.3761 12.1261 65.0488 12.1261C65.7215 12.1261 66.287 11.9692 66.7453 11.6553C67.2084 11.3367 67.5569 10.8731 67.7909 10.2647C68.0298 9.65152 68.1493 8.90069 68.1493 8.01226Z" fill="#8799B5"/>
<path d="M37.9929 31.4288V30.2028L41.2765 27.0145C41.5906 26.7004 41.8523 26.4213 42.0616 26.1773C42.271 25.9335 42.428 25.6971 42.5327 25.4683C42.6373 25.2396 42.6897 24.9956 42.6897 24.7364C42.6897 24.4407 42.622 24.1875 42.4865 23.9771C42.3511 23.7636 42.1647 23.5989 41.9277 23.4831C41.6906 23.3672 41.4212 23.3092 41.1195 23.3092C40.8085 23.3092 40.5361 23.3733 40.3021 23.5013C40.0681 23.6264 39.8863 23.8048 39.7571 24.0365C39.6309 24.2683 39.5678 24.5443 39.5678 24.8645H37.9375C37.9375 24.2699 38.0745 23.753 38.3485 23.3138C38.6225 22.8747 38.9996 22.5347 39.48 22.2938C39.9633 22.0529 40.5176 21.9324 41.1425 21.9324C41.7768 21.9324 42.3341 22.0498 42.8145 22.2847C43.2947 22.5194 43.6673 22.8411 43.9321 23.2498C44.1999 23.6585 44.3338 24.125 44.3338 24.6496C44.3338 25.0003 44.2661 25.3449 44.1307 25.6834C43.9952 26.0219 43.7566 26.397 43.4148 26.8087C43.0762 27.2203 42.6004 27.7189 41.9877 28.3044L40.3575 29.9467V30.0107H44.477V31.4288H37.9929Z" fill="#8799B5"/>
<path d="M46.4171 31.4288L50.4397 23.5427V23.4785H45.7705V22.0605H52.2131V23.5105L48.1952 31.4288H46.4171Z" fill="#8799B5"/>
<path d="M56.9965 31.6072C56.236 31.6072 55.5833 31.4165 55.0383 31.0354C54.4963 30.6512 54.0792 30.0976 53.7867 29.3748C53.4972 28.6491 53.3525 27.7754 53.3525 26.7538C53.3557 25.7322 53.5018 24.8631 53.7913 24.1464C54.0838 23.4267 54.501 22.8778 55.0429 22.4996C55.5879 22.1215 56.239 21.9324 56.9965 21.9324C57.7539 21.9324 58.405 22.1215 58.95 22.4996C59.4949 22.8778 59.9122 23.4267 60.2015 24.1464C60.494 24.866 60.6403 25.7352 60.6403 26.7538C60.6403 27.7784 60.494 28.6537 60.2015 29.3794C59.9122 30.1023 59.4949 30.6541 58.95 31.0354C58.4081 31.4165 57.7569 31.6072 56.9965 31.6072ZM56.9965 30.1754C57.5876 30.1754 58.054 29.8872 58.3958 29.3108C58.7407 28.7314 58.913 27.8791 58.913 26.7538C58.913 26.0097 58.8346 25.3845 58.6775 24.8783C58.5205 24.3721 58.2988 23.9908 58.0125 23.7347C57.7262 23.4755 57.3874 23.3459 56.9965 23.3459C56.4084 23.3459 55.9435 23.6356 55.6017 24.2149C55.26 24.7914 55.0876 25.6376 55.0845 26.7538C55.0813 27.5009 55.1568 28.1291 55.3107 28.6384C55.4678 29.1476 55.6894 29.532 55.9758 29.7912C56.2621 30.0473 56.6023 30.1754 56.9965 30.1754Z" fill="#8799B5"/>
<path d="M65.6712 31.6072C64.9107 31.6072 64.258 31.4165 63.713 31.0354C63.1712 30.6512 62.7539 30.0976 62.4614 29.3748C62.172 28.6491 62.0273 27.7754 62.0273 26.7538C62.0303 25.7322 62.1767 24.8631 62.466 24.1464C62.7585 23.4267 63.1758 22.8778 63.7176 22.4996C64.2626 22.1215 64.9138 21.9324 65.6712 21.9324C66.4286 21.9324 67.0798 22.1215 67.6248 22.4996C68.1697 22.8778 68.5868 23.4267 68.8763 24.1464C69.1688 24.866 69.315 25.7352 69.315 26.7538C69.315 27.7784 69.1688 28.6537 68.8763 29.3794C68.5868 30.1023 68.1697 30.6541 67.6248 31.0354C67.0828 31.4165 66.4317 31.6072 65.6712 31.6072ZM65.6712 30.1754C66.2623 30.1754 66.7288 29.8872 67.0706 29.3108C67.4153 28.7314 67.5878 27.8791 67.5878 26.7538C67.5878 26.0097 67.5093 25.3845 67.3522 24.8783C67.1952 24.3721 66.9735 23.9908 66.6872 23.7347C66.4009 23.4755 66.0622 23.3459 65.6712 23.3459C65.0831 23.3459 64.6182 23.6356 64.2764 24.2149C63.9347 24.7914 63.7623 25.6376 63.7592 26.7538C63.7562 27.5009 63.8315 28.1291 63.9854 28.6384C64.1425 29.1476 64.3642 29.532 64.6505 29.7912C64.9369 30.0473 65.277 30.1754 65.6712 30.1754Z" fill="#8799B5"/>
<path d="M74.6958 22.0605V31.4288H72.9825V23.7119H72.927L70.7148 25.1116V23.5564L73.0656 22.0605H74.6958Z" fill="#8799B5"/>
<path d="M27.1314 4.95174C24.1633 2.01189 20.217 0.392883 16.0194 0.392883C11.8218 0.392883 7.87555 2.01189 4.90738 4.95174C1.9392 7.89158 0.304688 11.8004 0.304688 15.958C0.304688 20.1154 1.93926 24.0242 4.90738 26.9641C7.8755 29.904 11.8218 31.523 16.0194 31.523C20.217 31.523 24.1633 29.9039 27.1314 26.9641C30.0996 24.0242 31.7341 20.1154 31.7341 15.958C31.7341 11.8004 30.0996 7.89164 27.1314 4.95174ZM27.0006 24.1453C26.0608 23.5153 25.077 22.971 24.057 22.5165C24.5075 20.7766 24.775 18.8874 24.8417 16.9308H29.7343C29.5413 19.6264 28.553 22.1078 27.0006 24.1453ZM2.30451 16.9308H7.19706C7.26384 18.8874 7.53136 20.7766 7.98181 22.5165C6.96184 22.971 5.97807 23.5153 5.03825 24.1453C3.4858 22.1078 2.4975 19.6264 2.30451 16.9308ZM5.038 7.77083C5.97782 8.40085 6.96158 8.94521 7.98169 9.39969C7.53125 11.1395 7.26379 13.0285 7.197 14.9852H2.30451C2.4975 12.2895 3.48575 9.8084 5.038 7.77083ZM22.442 5.18187C22.0821 4.51355 21.6932 3.91046 21.2797 3.37529C22.9413 4.0593 24.4394 5.05692 25.698 6.29355C24.9843 6.75795 24.243 7.16721 23.4786 7.52082C23.1787 6.69004 22.8323 5.90674 22.442 5.18187ZM21.6461 8.24648C19.853 8.84185 17.9606 9.14822 16.0194 9.14822C14.0782 9.14822 12.1858 8.84185 10.3927 8.24648C11.6488 4.70465 13.7243 2.33851 16.0194 2.33851C18.3145 2.33851 20.3899 4.70465 21.6461 8.24648ZM9.16281 14.9852C9.22763 13.2618 9.46268 11.6154 9.83418 10.114C11.8068 10.7612 13.8868 11.0938 16.0194 11.0938C18.1521 11.0938 20.2319 10.7612 22.2046 10.114C22.5761 11.6154 22.8112 13.2618 22.876 14.9852H9.16281ZM22.876 16.9308C22.8111 18.6541 22.5761 20.3006 22.2045 21.8021C20.2316 21.1549 18.1518 20.822 16.0194 20.822C13.8869 20.822 11.8071 21.1549 9.83424 21.8021C9.46268 20.3006 9.22763 18.6541 9.16281 16.9308H22.876ZM9.5968 5.18187C9.20652 5.90674 8.86018 6.69004 8.56019 7.52076C7.79581 7.16721 7.0544 6.75789 6.34079 6.29349C7.59938 5.05681 9.09743 4.05924 10.7591 3.37523C10.3456 3.91046 9.95664 4.51355 9.5968 5.18187ZM8.56025 24.3954C8.86018 25.2261 9.20652 26.0093 9.59675 26.734C9.95664 27.4023 10.3455 28.0054 10.7591 28.5406C9.09756 27.8566 7.59962 26.8591 6.3411 25.6226C7.05471 25.1583 7.796 24.749 8.56025 24.3954ZM10.3928 23.6696C12.1861 23.0741 14.0784 22.7677 16.0194 22.7677C17.9604 22.7677 19.8527 23.0741 21.646 23.6696C20.3898 27.2113 18.3145 29.5774 16.0194 29.5774C13.7243 29.5774 11.6489 27.2113 10.3928 23.6696ZM22.442 26.734C22.8322 26.0093 23.1786 25.2261 23.4785 24.3954C24.2428 24.749 24.9841 25.1583 25.6976 25.6226C24.4391 26.8591 22.9412 27.8566 21.2797 28.5406C21.6932 28.0054 22.0822 27.4023 22.442 26.734ZM24.8417 14.9852C24.7749 13.0286 24.5075 11.1395 24.057 9.39969C25.0771 8.94521 26.061 8.40085 27.0007 7.77083C28.5529 9.80834 29.5412 12.2895 29.7343 14.9852H24.8417Z" fill="#8799B5"/>
</g>
<defs>
<clipPath id="clip0_22419_8071">
<rect width="75" height="32" fill="white"/>
</clipPath>
</defs>
</svg>
