<svg width="616" height="275" viewBox="0 0 616 275" fill="none" xmlns="http://www.w3.org/2000/svg">
<path d="M36.2647 193.229L1 191.888V275H615V49.9385H572.999C561.321 49.9385 549.734 47.893 538.762 43.8949L527.079 39.6377C519.066 36.7178 511.91 31.8403 506.263 25.4492C500.722 19.1785 493.727 14.363 485.892 11.4252L479.93 9.18994C467.708 4.6072 454.126 5.34776 442.474 11.2322C438.21 13.3853 434.303 16.1796 430.886 19.5176L426.45 23.8523C415.43 34.6197 407.471 48.123 403.387 62.9788L369.784 185.225C365.589 200.485 346.763 205.942 335.057 195.292C321.358 184.279 302.413 182.496 286.9 190.758L285.787 191.35C282.288 193.214 279.046 195.523 276.142 198.22L255.483 217.408C241.944 229.983 220.031 225.331 212.768 208.34L206.492 196.85C201.722 188.117 194.184 181.218 185.065 177.237C177.276 173.837 168.683 172.718 160.283 174.012L149.536 175.667C129.258 178.79 112.851 193.807 107.949 213.73C104.182 224.317 91.1341 228.081 82.3072 221.125L81.1525 220.215C79.9896 219.299 78.9479 218.239 78.0522 217.06L75.4169 213.591C66.0701 201.288 51.7046 193.817 36.2647 193.229Z" fill="url(#paint0_linear_18819_19870)" fill-opacity="0.12"/>
<path d="M0.75 191.91L36.0197 193.252C51.4567 193.839 65.8198 201.307 75.1664 213.607L77.8018 217.075C78.6977 218.254 79.7397 219.314 80.9029 220.231L82.0597 221.142C90.8862 228.095 103.932 224.332 107.699 213.746V213.746V213.746C112.601 193.829 129.005 178.817 149.278 175.696L160.035 174.039C168.433 172.746 177.026 173.864 184.813 177.263V177.263C193.934 181.243 201.473 188.142 206.244 196.875L212.518 208.358V208.358C219.782 225.347 241.691 229.998 255.23 217.426L275.891 198.242C278.796 195.545 282.039 193.236 285.538 191.373L286.651 190.78C302.164 182.52 321.108 184.304 334.807 195.313V195.313V195.313C346.517 205.965 365.346 200.511 369.55 185.249L403.628 61.531C407.718 46.6826 415.679 33.1871 426.696 22.425L431.135 18.0885C434.552 14.7507 438.461 11.9567 442.725 9.80386V9.80386C454.376 3.92118 467.957 3.18083 480.179 7.7621L486.143 9.99781C493.978 12.9345 500.972 17.7484 506.513 24.0174V24.0174C512.16 30.4068 519.315 35.2827 527.327 38.2015L539.015 42.4594C549.985 46.4556 561.57 48.5 573.245 48.5H615.25" stroke="#9FEF00" stroke-width="3"/>
<defs>
<linearGradient id="paint0_linear_18819_19870" x1="308" y1="160.969" x2="308" y2="275" gradientUnits="userSpaceOnUse">
<stop offset="0.283484" stop-color="#9FEF00"/>
<stop offset="1" stop-color="#9FEF00" stop-opacity="0"/>
</linearGradient>
</defs>
</svg>
