<svg width="270" height="273" viewBox="0 0 270 273" fill="none" xmlns="http://www.w3.org/2000/svg">
<path d="M120 3.00002L120 209.529C120 212.55 126.268 215 134 215C141.732 215 148 212.55 148 209.529L148 3.00001L120 3.00002Z" fill="#111927"/>
<path d="M127.607 201.514C126.669 201.514 125.906 200.752 125.906 199.813C125.906 198.874 126.669 198.112 127.607 198.112L141.213 198.112C142.153 198.112 142.914 198.874 142.914 199.813C142.914 200.752 142.153 201.514 141.213 201.514L127.607 201.514Z" fill="#9FEF00"/>
<path d="M127.605 191.51C126.667 191.51 125.904 190.748 125.904 189.809C125.904 188.87 126.667 188.108 127.605 188.108L141.211 188.108C142.152 188.108 142.912 188.87 142.912 189.809C142.912 190.748 142.152 191.51 141.211 191.51L127.605 191.51Z" fill="#9FEF00"/>
<path d="M127.605 181.506C126.667 181.506 125.904 180.744 125.904 179.805C125.904 178.866 126.667 178.104 127.605 178.104L141.211 178.104C142.152 178.104 142.912 178.866 142.912 179.805C142.912 180.744 142.152 181.506 141.211 181.506L127.605 181.506Z" fill="#9FEF00"/>
<path d="M127.605 171.502C126.667 171.502 125.904 170.74 125.904 169.801C125.904 168.862 126.667 168.1 127.605 168.1L141.211 168.1C142.152 168.1 142.912 168.862 142.912 169.801C142.912 170.74 142.152 171.502 141.211 171.502L127.605 171.502Z" fill="#9FEF00"/>
<path d="M127.605 161.498C126.667 161.498 125.904 160.737 125.904 159.797C125.904 158.858 126.667 158.096 127.605 158.096L141.211 158.096C142.152 158.096 142.912 158.858 142.912 159.797C142.912 160.737 142.152 161.498 141.211 161.498L127.605 161.498Z" fill="#9FEF00"/>
<path d="M127.605 151.494C126.667 151.494 125.904 150.733 125.904 149.793C125.904 148.854 126.667 148.093 127.605 148.093L141.211 148.093C142.152 148.093 142.912 148.854 142.912 149.793C142.912 150.733 142.152 151.494 141.211 151.494L127.605 151.494Z" fill="#9FEF00"/>
<path d="M127.605 141.49C126.667 141.49 125.904 140.729 125.904 139.789C125.904 138.85 126.667 138.089 127.605 138.089L141.211 138.089C142.152 138.089 142.912 138.85 142.912 139.789C142.912 140.729 142.152 141.49 141.211 141.49L127.605 141.49Z" fill="#9FEF00"/>
<path d="M127.607 131.486C126.669 131.486 125.906 130.725 125.906 129.786C125.906 128.846 126.669 128.085 127.607 128.085L141.213 128.085C142.153 128.085 142.914 128.846 142.914 129.786C142.914 130.725 142.153 131.486 141.213 131.486L127.607 131.486Z" fill="#9FEF00"/>
<path d="M127.605 121.481C126.667 121.481 125.904 120.72 125.904 119.781C125.904 118.841 126.667 118.08 127.605 118.08L141.211 118.08C142.152 118.08 142.912 118.841 142.912 119.781C142.912 120.72 142.152 121.481 141.211 121.481L127.605 121.481Z" fill="#9FEF00"/>
<path d="M127.607 111.478C126.669 111.478 125.906 110.716 125.906 109.777C125.906 108.838 126.669 108.076 127.607 108.076L141.213 108.076C142.153 108.076 142.914 108.838 142.914 109.777C142.914 110.716 142.153 111.478 141.213 111.478L127.607 111.478Z" fill="#9FEF00"/>
<path d="M127.605 101.474C126.667 101.474 125.904 100.712 125.904 99.7729C125.904 98.8335 126.667 98.0721 127.605 98.0721L141.211 98.0721C142.152 98.0721 142.912 98.8335 142.912 99.7729C142.912 100.712 142.152 101.474 141.211 101.474L127.605 101.474Z" fill="#FFAF00"/>
<path d="M127.605 91.4697C126.667 91.4697 125.904 90.7083 125.904 89.7692C125.904 88.8298 126.667 88.0684 127.605 88.0684L141.211 88.0684C142.152 88.0684 142.912 88.8298 142.912 89.7692C142.912 90.7083 142.152 91.4697 141.211 91.4697L127.605 91.4697Z" fill="#FFAF00"/>
<path d="M127.605 81.4658C126.667 81.4658 125.904 80.7044 125.904 79.765C125.904 78.8257 126.667 78.0643 127.605 78.0643L141.211 78.0643C142.152 78.0643 142.912 78.8257 142.912 79.765C142.912 80.7044 142.152 81.4658 141.211 81.4658L127.605 81.4658Z" fill="#FFAF00"/>
<path d="M127.605 71.4619C126.667 71.4619 125.904 70.7005 125.904 69.7611C125.904 68.822 126.667 68.0606 127.605 68.0606L141.211 68.0606C142.152 68.0606 142.912 68.822 142.912 69.7611C142.912 70.7005 142.152 71.4619 141.211 71.4619L127.605 71.4619Z" fill="#FFAF00"/>
<path d="M127.605 61.458C126.667 61.458 125.904 60.6966 125.904 59.7572C125.904 58.8179 126.667 58.0564 127.605 58.0564L141.211 58.0564C142.152 58.0564 142.912 58.8179 142.912 59.7572C142.912 60.6966 142.152 61.458 141.211 61.458L127.605 61.458Z" fill="#FF2F3E"/>
<path d="M127.605 51.4541C126.667 51.4541 125.904 50.6927 125.904 49.7533C125.904 48.8142 126.667 48.0528 127.605 48.0528L141.211 48.0528C142.152 48.0528 142.912 48.8142 142.912 49.7533C142.912 50.6927 142.152 51.4541 141.211 51.4541L127.605 51.4541Z" fill="#FF2F3E"/>
<path d="M127.607 41.4502C126.669 41.4502 125.906 40.6888 125.906 39.7501C125.906 38.8098 126.669 38.0493 127.607 38.0493L141.213 38.0493C142.153 38.0493 142.914 38.8098 142.914 39.7501C142.914 40.6888 142.153 41.4502 141.213 41.4502L127.607 41.4502Z" fill="#FF2F3E"/>
<path d="M127.605 31.4453C126.667 31.4453 125.904 30.6848 125.904 29.7445C125.904 28.8065 126.667 28.0438 127.605 28.0438L141.211 28.0438C142.152 28.0438 142.912 28.8065 142.912 29.7445C142.912 30.6848 142.152 31.4453 141.211 31.4453L127.605 31.4453Z" fill="#FF2F3E"/>
<path d="M127.607 21.4414C126.669 21.4414 125.906 20.6787 125.906 19.7406C125.906 18.8004 126.669 18.0398 127.607 18.0398L141.213 18.0398C142.153 18.0398 142.914 18.8004 142.914 19.7406C142.914 20.6787 142.153 21.4414 141.213 21.4414L127.607 21.4414Z" fill="#FF2F3E"/>
<path d="M127.605 11.4365C126.667 11.4365 125.904 10.676 125.904 9.73574C125.904 8.79769 126.667 8.03497 127.605 8.03497L141.211 8.03496C142.152 8.03496 142.912 8.79769 142.912 9.73574C142.912 10.676 142.152 11.4365 141.211 11.4365L127.605 11.4365Z" fill="#FF2F3E"/>
<g filter="url(#filter0_dd_13572_5963)">
<path d="M125.144 131.286C118.435 131.286 113 125.851 113 119.144C113 112.435 118.435 107 125.144 107L142.856 107C149.562 107 155 112.435 155 119.144C155 125.851 149.562 131.286 142.856 131.286L125.144 131.286Z" fill="white"/>
</g>
<g filter="url(#filter1_d_13572_5963)">
<path d="M125.606 125.573C122.055 125.573 119.178 122.696 119.178 119.145C119.178 115.594 122.055 112.714 125.606 112.714L142.395 112.714C145.945 112.714 148.825 115.594 148.825 119.145C148.825 122.696 145.945 125.573 142.395 125.573L125.606 125.573Z" fill="#363F51"/>
</g>
<path d="M127.605 121.521C126.667 121.521 125.904 120.759 125.904 119.82C125.904 118.881 126.667 118.119 127.605 118.119L141.211 118.119C142.152 118.119 142.912 118.881 142.912 119.82C142.912 120.759 142.152 121.521 141.211 121.521L127.605 121.521Z" fill="#FFAF00"/>
<g filter="url(#filter2_f_13572_5963)">
<path d="M69.457 3L69.457 134.516C69.457 136.44 73.4485 138 78.3721 138C83.2958 138 87.2872 136.44 87.2872 134.516L87.2872 3L69.457 3Z" fill="#111927"/>
<path d="M74.2998 129.412C73.7025 129.412 73.2168 128.927 73.2168 128.329C73.2168 127.731 73.7025 127.246 74.2998 127.246L82.9642 127.246C83.5629 127.246 84.0472 127.731 84.0472 128.329C84.0472 128.927 83.5629 129.412 82.9642 129.412L74.2998 129.412Z" fill="#9FEF00"/>
<path d="M74.3018 123.042C73.7044 123.042 73.2187 122.557 73.2187 121.959C73.2187 121.361 73.7044 120.876 74.3018 120.876L82.9661 120.876C83.5649 120.876 84.0492 121.361 84.0492 121.959C84.0492 122.557 83.5649 123.042 82.9661 123.042L74.3018 123.042Z" fill="#9FEF00"/>
<path d="M74.3018 116.671C73.7044 116.671 73.2187 116.186 73.2187 115.588C73.2187 114.99 73.7044 114.505 74.3018 114.505L82.9661 114.505C83.5649 114.505 84.0492 114.99 84.0492 115.588C84.0492 116.186 83.5649 116.671 82.9661 116.671L74.3018 116.671Z" fill="#9FEF00"/>
<path d="M74.2998 110.301C73.7025 110.301 73.2168 109.816 73.2168 109.218C73.2168 108.62 73.7025 108.135 74.2998 108.135L82.9642 108.135C83.5629 108.135 84.0472 108.62 84.0472 109.218C84.0472 109.816 83.5629 110.301 82.9642 110.301L74.2998 110.301Z" fill="#9FEF00"/>
<path d="M74.3018 103.931C73.7044 103.931 73.2187 103.446 73.2187 102.848C73.2187 102.25 73.7044 101.765 74.3018 101.765L82.9661 101.765C83.5649 101.765 84.0492 102.25 84.0492 102.848C84.0492 103.446 83.5649 103.931 82.9661 103.931L74.3018 103.931Z" fill="#9FEF00"/>
<path d="M74.3018 97.5596C73.7044 97.5596 73.2187 97.0746 73.2187 96.4765C73.2187 95.8783 73.7044 95.3935 74.3018 95.3935L82.9661 95.3935C83.5649 95.3935 84.0492 95.8783 84.0492 96.4765C84.0492 97.0746 83.5649 97.5596 82.9661 97.5596L74.3018 97.5596Z" fill="#9FEF00"/>
<path d="M74.2998 91.1893C73.7025 91.1893 73.2168 90.7045 73.2168 90.1063C73.2168 89.5082 73.7025 89.0233 74.2998 89.0232L82.9642 89.0232C83.5629 89.0232 84.0472 89.5082 84.0472 90.1063C84.0472 90.7045 83.5629 91.1893 82.9642 91.1893L74.2998 91.1893Z" fill="#9FEF00"/>
<path d="M74.2998 84.8184C73.7025 84.8184 73.2168 84.3334 73.2168 83.7353C73.2168 83.1371 73.7025 82.6523 74.2998 82.6523L82.9642 82.6523C83.5629 82.6523 84.0472 83.1371 84.0472 83.7353C84.0472 84.3334 83.5629 84.8184 82.9642 84.8184L74.2998 84.8184Z" fill="#9FEF00"/>
<path d="M74.2998 78.4484C73.7025 78.4484 73.2168 77.9635 73.2168 77.3653C73.2168 76.7671 73.7025 76.2823 74.2998 76.2823L82.9642 76.2823C83.5629 76.2823 84.0472 76.7671 84.0472 77.3653C84.0472 77.9635 83.5629 78.4484 82.9642 78.4484L74.2998 78.4484Z" fill="#9FEF00"/>
<path d="M74.2998 72.0781C73.7025 72.0781 73.2168 71.5933 73.2168 70.9952C73.2168 70.397 73.7025 69.9122 74.2998 69.9122L82.9642 69.9122C83.5629 69.9122 84.0472 70.397 84.0472 70.9952C84.0472 71.5933 83.5629 72.0781 82.9642 72.0781L74.2998 72.0781Z" fill="#9FEF00"/>
<path d="M74.2998 65.707C73.7025 65.707 73.2168 65.2222 73.2168 64.624C73.2168 64.0258 73.7025 63.5409 74.2998 63.5409L82.9642 63.5409C83.5629 63.5409 84.0472 64.0258 84.0472 64.624C84.0472 65.2222 83.5629 65.707 82.9642 65.707L74.2998 65.707Z" fill="#FFAF00"/>
<path d="M74.2998 59.3369C73.7025 59.3369 73.2168 58.8521 73.2168 58.254C73.2168 57.6558 73.7025 57.171 74.2998 57.171L82.9642 57.171C83.5629 57.171 84.0472 57.6558 84.0472 58.254C84.0472 58.8521 83.5629 59.3369 82.9642 59.3369L74.2998 59.3369Z" fill="#FFAF00"/>
<path d="M74.3018 52.9668C73.7044 52.9668 73.2187 52.4819 73.2187 51.8838C73.2187 51.2856 73.7044 50.8007 74.3018 50.8007L82.9661 50.8007C83.5649 50.8007 84.0492 51.2856 84.0492 51.8838C84.0492 52.4819 83.5649 52.9668 82.9661 52.9668L74.3018 52.9668Z" fill="#FFAF00"/>
<path d="M74.2998 46.5957C73.7025 46.5957 73.2168 46.1108 73.2168 45.5127C73.2168 44.9146 73.7025 44.4298 74.2998 44.4298L82.9642 44.4298C83.5629 44.4298 84.0472 44.9146 84.0472 45.5127C84.0472 46.1108 83.5629 46.5957 82.9642 46.5957L74.2998 46.5957Z" fill="#FFAF00"/>
<path d="M74.2998 40.2255C73.7025 40.2255 73.2168 39.7406 73.2168 39.1424C73.2168 38.5442 73.7025 38.0594 74.2998 38.0594L82.9642 38.0594C83.5629 38.0594 84.0472 38.5442 84.0472 39.1424C84.0472 39.7406 83.5629 40.2255 82.9642 40.2255L74.2998 40.2255Z" fill="#FF2F3E"/>
<path d="M74.3018 33.8555C73.7044 33.8555 73.2187 33.3706 73.2187 32.7724C73.2187 32.1744 73.7044 31.6895 74.3018 31.6895L82.9661 31.6895C83.5649 31.6895 84.0492 32.1744 84.0492 32.7724C84.0492 33.3706 83.5649 33.8555 82.9661 33.8555L74.3018 33.8555Z" fill="#FF2F3E"/>
<path d="M74.2998 27.4845C73.7025 27.4845 73.2168 26.9997 73.2168 26.4019C73.2168 25.8032 73.7025 25.3189 74.2998 25.3189L82.9642 25.3189C83.5629 25.3189 84.0472 25.8032 84.0472 26.4019C84.0472 26.9997 83.5629 27.4845 82.9642 27.4845L74.2998 27.4845Z" fill="#FF2F3E"/>
<path d="M74.2998 21.114C73.7025 21.114 73.2168 20.6297 73.2168 20.031C73.2168 19.4337 73.7025 18.948 74.2998 18.948L82.9642 18.948C83.5629 18.948 84.0472 19.4337 84.0472 20.031C84.0472 20.6297 83.5629 21.114 82.9642 21.114L74.2998 21.114Z" fill="#FF2F3E"/>
<path d="M74.3018 14.7432C73.7044 14.7432 73.2187 14.2575 73.2187 13.6601C73.2187 13.0614 73.7044 12.5771 74.3018 12.5771L82.9661 12.5771C83.5649 12.5771 84.0492 13.0614 84.0492 13.6601C84.0492 14.2575 83.5649 14.7432 82.9661 14.7432L74.3018 14.7432Z" fill="#FF2F3E"/>
<path d="M74.3018 8.37207C73.7044 8.37207 73.2187 7.88777 73.2187 7.28903C73.2187 6.69168 73.7044 6.20598 74.3018 6.20598L82.9661 6.20598C83.5649 6.20598 84.0492 6.69168 84.0492 7.28903C84.0492 7.88777 83.5649 8.37207 82.9661 8.37207L74.3018 8.37207Z" fill="#FF2F3E"/>
<g filter="url(#filter3_dd_13572_5963)">
<path d="M72.7334 110.466C68.4613 110.466 65 107.005 65 102.734C65 98.4616 68.4613 95.0004 72.7334 95.0004L84.0118 95.0004C88.2826 95.0004 91.7453 98.4616 91.7453 102.734C91.7453 107.005 88.2826 110.466 84.0119 110.466L72.7334 110.466Z" fill="white"/>
</g>
<g filter="url(#filter4_d_13572_5963)">
<path d="M73.0291 106.827C70.7681 106.827 68.9355 104.995 68.9355 102.734C68.9355 100.473 70.7681 98.6388 73.0291 98.6388L83.7199 98.6388C85.9809 98.6388 87.8148 100.473 87.8148 102.734C87.8148 104.995 85.9809 106.827 83.7199 106.827L73.0291 106.827Z" fill="#363F51"/>
</g>
<path d="M74.3018 104.247C73.7044 104.247 73.2187 103.762 73.2187 103.164C73.2187 102.566 73.7044 102.081 74.3018 102.081L82.9661 102.081C83.5649 102.081 84.0492 102.566 84.0492 103.164C84.0492 103.762 83.5649 104.247 82.9661 104.247L74.3018 104.247Z" fill="#9FEF00"/>
</g>
<g filter="url(#filter5_f_13572_5963)">
<path d="M181.668 3.00011L181.668 170.19C181.668 172.636 186.742 174.619 193.001 174.619C199.261 174.619 204.335 172.636 204.335 170.19L204.335 3.00011L181.668 3.00011Z" fill="#111927"/>
<path d="M187.824 163.702C187.065 163.702 186.447 163.086 186.447 162.325C186.447 161.565 187.065 160.949 187.824 160.949L198.839 160.949C199.6 160.949 200.215 161.565 200.215 162.325C200.215 163.086 199.6 163.702 198.839 163.702L187.824 163.702Z" fill="#9FEF00"/>
<path d="M187.824 155.604C187.065 155.604 186.447 154.987 186.447 154.227C186.447 153.466 187.065 152.85 187.824 152.85L198.839 152.85C199.6 152.85 200.215 153.466 200.215 154.227C200.215 154.987 199.6 155.604 198.839 155.604L187.824 155.604Z" fill="#9FEF00"/>
<path d="M187.824 147.505C187.065 147.505 186.447 146.889 186.447 146.128C186.447 145.368 187.065 144.751 187.824 144.751L198.839 144.751C199.6 144.751 200.215 145.368 200.215 146.128C200.215 146.889 199.6 147.505 198.839 147.505L187.824 147.505Z" fill="#9FEF00"/>
<path d="M187.824 139.406C187.065 139.406 186.447 138.79 186.447 138.029C186.447 137.269 187.065 136.653 187.824 136.653L198.839 136.653C199.6 136.653 200.215 137.269 200.215 138.029C200.215 138.79 199.6 139.406 198.839 139.406L187.824 139.406Z" fill="#9FEF00"/>
<path d="M187.824 131.308C187.065 131.308 186.447 130.691 186.447 129.931C186.447 129.171 187.065 128.554 187.824 128.554L198.839 128.554C199.6 128.554 200.215 129.171 200.215 129.931C200.215 130.691 199.6 131.308 198.839 131.308L187.824 131.308Z" fill="#9FEF00"/>
<path d="M187.822 123.209C187.063 123.209 186.445 122.592 186.445 121.832C186.445 121.072 187.063 120.455 187.822 120.455L198.837 120.455C199.598 120.455 200.214 121.072 200.214 121.832C200.214 122.592 199.598 123.209 198.837 123.209L187.822 123.209Z" fill="#9FEF00"/>
<path d="M187.824 115.111C187.065 115.111 186.447 114.495 186.447 113.735C186.447 112.974 187.065 112.358 187.824 112.358L198.839 112.358C199.6 112.358 200.215 112.974 200.215 113.735C200.215 114.495 199.6 115.111 198.839 115.111L187.824 115.111Z" fill="#9FEF00"/>
<path d="M187.824 107.013C187.065 107.013 186.447 106.396 186.447 105.636C186.447 104.875 187.065 104.259 187.824 104.259L198.839 104.259C199.6 104.259 200.215 104.875 200.215 105.636C200.215 106.396 199.6 107.013 198.839 107.013L187.824 107.013Z" fill="#9FEF00"/>
<path d="M187.824 98.9141C187.065 98.9141 186.447 98.2977 186.447 97.5372C186.447 96.7768 187.065 96.1604 187.824 96.1604L198.839 96.1604C199.6 96.1604 200.215 96.7768 200.215 97.5372C200.215 98.2977 199.6 98.9141 198.839 98.9141L187.824 98.9141Z" fill="#9FEF00"/>
<path d="M187.824 90.8154C187.065 90.8154 186.447 90.1991 186.447 89.4388C186.447 88.6784 187.065 88.062 187.824 88.062L198.839 88.062C199.6 88.062 200.215 88.6784 200.215 89.4388C200.215 90.1991 199.6 90.8154 198.839 90.8154L187.824 90.8154Z" fill="#9FEF00"/>
<path d="M187.824 82.7168C187.065 82.7168 186.447 82.1004 186.447 81.34C186.447 80.5795 187.065 79.9632 187.824 79.9632L198.839 79.9632C199.6 79.9632 200.215 80.5795 200.215 81.34C200.215 82.1004 199.6 82.7168 198.839 82.7168L187.824 82.7168Z" fill="#FFAF00"/>
<path d="M187.824 74.6182C187.065 74.6182 186.447 74.0018 186.447 73.2415C186.447 72.4811 187.065 71.8647 187.824 71.8647L198.839 71.8647C199.6 71.8647 200.215 72.4811 200.215 73.2415C200.215 74.0018 199.6 74.6182 198.839 74.6182L187.824 74.6182Z" fill="#FFAF00"/>
<path d="M187.824 66.5205C187.065 66.5205 186.447 65.9041 186.447 65.1437C186.447 64.3832 187.065 63.7669 187.824 63.7669L198.839 63.7669C199.6 63.7669 200.215 64.3832 200.215 65.1437C200.215 65.9041 199.6 66.5205 198.839 66.5205L187.824 66.5205Z" fill="#FFAF00"/>
<path d="M187.822 58.4219C187.063 58.4219 186.445 57.8055 186.445 57.0451C186.445 56.2848 187.063 55.6684 187.822 55.6684L198.837 55.6684C199.598 55.6684 200.214 56.2848 200.214 57.0451C200.214 57.8055 199.598 58.4219 198.837 58.4219L187.822 58.4219Z" fill="#FFAF00"/>
<path d="M187.824 50.3232C187.065 50.3232 186.447 49.7069 186.447 48.9464C186.447 48.186 187.065 47.5696 187.824 47.5696L198.839 47.5696C199.6 47.5696 200.215 48.186 200.215 48.9464C200.215 49.7069 199.6 50.3232 198.839 50.3232L187.824 50.3232Z" fill="#FF2F3E"/>
<path d="M187.824 42.2246C187.065 42.2246 186.447 41.6082 186.447 40.8478C186.447 40.0875 187.065 39.4711 187.824 39.4711L198.839 39.4711C199.6 39.4711 200.215 40.0875 200.215 40.8478C200.215 41.6082 199.6 42.2246 198.839 42.2246L187.824 42.2246Z" fill="#FF2F3E"/>
<path d="M187.824 34.126C187.065 34.126 186.447 33.5096 186.447 32.7497C186.447 31.9885 187.065 31.3729 187.824 31.3729L198.839 31.3729C199.6 31.3729 200.215 31.9885 200.215 32.7497C200.215 33.5096 199.6 34.126 198.839 34.126L187.824 34.126Z" fill="#FF2F3E"/>
<path d="M187.824 26.0273C187.065 26.0273 186.447 25.4117 186.447 24.6505C186.447 23.8911 187.065 23.2737 187.824 23.2737L198.839 23.2737C199.6 23.2737 200.215 23.8911 200.215 24.6505C200.215 25.4117 199.6 26.0273 198.839 26.0273L187.824 26.0273Z" fill="#FF2F3E"/>
<path d="M187.822 17.9287C187.063 17.9287 186.445 17.3113 186.445 16.5519C186.445 15.7907 187.063 15.1751 187.822 15.1751L198.837 15.1751C199.598 15.1751 200.214 15.7907 200.214 16.5519C200.214 17.3113 199.598 17.9287 198.837 17.9287L187.822 17.9287Z" fill="#FF2F3E"/>
<path d="M187.824 9.83008C187.065 9.83008 186.447 9.21441 186.447 8.45326C186.447 7.69388 187.065 7.07644 187.824 7.07644L198.839 7.07644C199.6 7.07644 200.215 7.69388 200.215 8.45326C200.215 9.21441 199.6 9.83008 198.839 9.83008L187.824 9.83008Z" fill="#FF2F3E"/>
<g filter="url(#filter6_dd_13572_5963)">
<path d="M185.831 50.6602C180.4 50.6602 176 46.26 176 40.8308C176 35.3998 180.4 30.9997 185.831 30.9997L200.169 30.9997C205.598 30.9997 210 35.3998 210 40.8308C210 46.26 205.598 50.6602 200.169 50.6602L185.831 50.6602Z" fill="white"/>
</g>
<g filter="url(#filter7_d_13572_5963)">
<path d="M186.206 46.0351C183.332 46.0351 181.002 43.7055 181.002 40.8312C181.002 37.957 183.332 35.6256 186.206 35.6256L199.797 35.6256C202.671 35.6256 205.002 37.957 205.002 40.8312C205.002 43.7055 202.671 46.0351 199.797 46.0351L186.206 46.0351Z" fill="#363F51"/>
</g>
<path d="M187.822 42.7549C187.063 42.7549 186.445 42.1385 186.445 41.3782C186.445 40.6178 187.063 40.0014 187.822 40.0014L198.837 40.0014C199.598 40.0014 200.214 40.6178 200.214 41.3782C200.214 42.1385 199.598 42.7549 198.837 42.7549L187.822 42.7549Z" fill="#FF2F3E"/>
</g>
<g filter="url(#filter8_d_13572_5963)">
<path d="M163.559 129.644L151 122L153.73 136.743L157.006 131.283L163.559 129.644Z" fill="#111927"/>
<path d="M151.284 121.534L150.241 120.899L150.463 122.099L153.193 136.842L153.456 138.261L154.198 137.024L157.358 131.757L163.691 130.174L164.959 129.857L163.843 129.178L151.284 121.534Z" stroke="white" stroke-width="1.09206"/>
</g>
<g filter="url(#filter9_d_13572_5963)">
<path d="M160 137H189.454C190.558 137 191.454 137.895 191.454 139V157.368C191.454 158.473 190.558 159.368 189.454 159.368H162C160.895 159.368 160 158.473 160 157.368V137Z" fill="#111927"/>
<path d="M168.824 149.768L171.799 144.68H170.186L169.266 146.364C168.86 147.081 168.478 147.821 168.12 148.562H168.096C167.737 147.821 167.355 147.081 166.961 146.364L166.029 144.68H164.405L167.391 149.768V153.184H168.824V149.768ZM174.028 146.937C172.189 146.937 171.03 148.179 171.03 150.15C171.03 152.121 172.189 153.363 174.028 153.363C175.867 153.363 177.014 152.121 177.014 150.15C177.014 148.179 175.867 146.937 174.028 146.937ZM174.028 148.012C174.995 148.012 175.593 148.836 175.593 150.15C175.593 151.464 174.995 152.288 174.028 152.288C173.06 152.288 172.463 151.464 172.463 150.15C172.463 148.836 173.06 148.012 174.028 148.012ZM180.551 153.327C181.352 153.327 181.985 152.945 182.367 152.396H182.391V153.184H183.681V147.116H182.319V150.485C182.319 151.643 181.71 152.229 180.934 152.229C180.169 152.229 179.703 151.799 179.703 150.712V147.116H178.342V150.831C178.342 152.491 179.178 153.327 180.551 153.327Z" fill="white"/>
</g>
<g filter="url(#filter10_f_13572_5963)">
<g filter="url(#filter11_d_13572_5963)">
<path d="M214.73 47.7051L207 43L208.68 52.0742L210.697 48.7134L214.73 47.7051Z" fill="#111927"/>
<path d="M207.175 42.7129L206.533 42.3221L206.67 43.0612L208.35 52.1354L208.512 53.0086L208.969 52.2471L210.913 49.0056L214.811 48.0312L215.591 47.8361L214.905 47.418L207.175 42.7129Z" stroke="white" stroke-width="0.67216"/>
</g>
<g filter="url(#filter12_d_13572_5963)">
<path d="M213 52H234.769C235.449 52 236 52.5511 236 53.231V64.4576C236 65.1375 235.449 65.6886 234.769 65.6886H214.231C213.551 65.6886 213 65.1375 213 64.4577V52Z" fill="#111927"/>
<path d="M218.41 56.9996C216.91 56.9996 215.984 58.0436 215.984 59.7492C215.984 61.4254 216.836 62.4399 218.174 62.4399C218.895 62.4399 219.476 62.1532 219.755 61.6974H219.77V62.3443H220.527V59.5139H218.365V60.2491H219.704C219.696 61.2636 219.174 61.7268 218.373 61.7268C217.461 61.7268 216.895 60.9769 216.895 59.7492C216.895 58.5288 217.476 57.7862 218.41 57.7862C219.079 57.7862 219.498 58.1171 219.601 58.7126H220.542C220.439 57.6686 219.652 56.9996 218.41 56.9996ZM223.543 58.5582C223.08 58.5582 222.727 58.7567 222.477 59.161H222.463V58.6096H221.683V62.3443H222.521V60.5137C222.521 59.7345 222.889 59.3081 223.558 59.3081C223.654 59.3081 223.749 59.3154 223.852 59.3375V58.5949C223.757 58.5729 223.639 58.5582 223.543 58.5582ZM225.928 61.8371C225.406 61.8371 224.979 61.4915 224.95 60.6461H227.692C227.692 60.2858 227.663 60.0065 227.589 59.7712C227.383 58.9919 226.766 58.4994 225.913 58.4994C224.781 58.4994 224.119 59.3301 224.119 60.4329C224.119 61.6386 224.788 62.4546 225.928 62.4546C226.906 62.4546 227.508 61.8885 227.648 61.2195H226.788C226.714 61.5797 226.406 61.8371 225.928 61.8371ZM225.913 59.1169C226.413 59.1169 226.795 59.4404 226.854 60.0947H224.965C225.038 59.4477 225.406 59.1169 225.913 59.1169ZM229.922 58.5067C228.966 58.5067 228.356 59.2492 228.356 60.4035C228.356 61.565 228.959 62.3002 229.907 62.3002C230.37 62.3002 230.716 62.1091 230.988 61.7121H231.003V62.0797C231.003 62.859 230.694 63.1457 230.135 63.1457C229.665 63.1457 229.378 62.9398 229.356 62.5796H228.518C228.554 63.3148 229.121 63.7632 230.12 63.7632C231.172 63.7632 231.819 63.2265 231.819 62.1091V58.6096H231.025V59.1316H231.01C230.731 58.7052 230.385 58.5067 229.922 58.5067ZM230.113 59.2051C230.679 59.2051 231.032 59.6756 231.032 60.4035C231.032 61.1386 230.679 61.6092 230.113 61.6092C229.576 61.6092 229.231 61.1386 229.231 60.4035C229.231 59.6683 229.576 59.2051 230.113 59.2051Z" fill="white"/>
</g>
</g>
<g filter="url(#filter13_f_13572_5963)">
<g filter="url(#filter14_d_13572_5963)">
<path d="M57.2702 109.705L65 105L63.3196 114.074L61.3031 110.713L57.2702 109.705Z" fill="#111927"/>
<path d="M64.8253 104.713L65.4673 104.322L65.3305 105.061L63.6501 114.135L63.4883 115.009L63.0314 114.247L61.0866 111.006L57.1886 110.031L56.4085 109.836L57.0954 109.418L64.8253 104.713Z" stroke="white" stroke-width="0.67216"/>
</g>
<g filter="url(#filter15_d_13572_5963)">
<path d="M59 114H35.231C34.5511 114 34 114.551 34 115.231V126.458C34 127.138 34.5511 127.689 35.231 127.689H57.769C58.4489 127.689 59 127.138 59 126.458V114Z" fill="#111927"/>
<path d="M38.4793 119C37.3692 119 36.6414 119.61 36.6414 120.499C36.6414 121.595 37.4648 121.837 38.4573 122.087C39.2586 122.286 39.6409 122.403 39.6409 122.933C39.6409 123.425 39.2586 123.727 38.6043 123.727C37.8765 123.727 37.4648 123.367 37.4648 122.617H36.5605C36.5605 123.815 37.3324 124.455 38.5969 124.455C39.7732 124.455 40.5525 123.822 40.5525 122.852C40.5525 121.749 39.7291 121.492 38.744 121.249C37.9059 121.043 37.5456 120.896 37.5456 120.418C37.5456 119.992 37.8985 119.72 38.4646 119.72C39.141 119.72 39.5159 120.058 39.5159 120.72H40.4055C40.4055 119.595 39.7512 119 38.4793 119ZM42.8398 120.499C41.8326 120.499 41.318 121.058 41.2812 121.764H42.1046C42.1266 121.367 42.3766 121.11 42.8398 121.11C43.2662 121.11 43.5676 121.33 43.5676 121.881V122.029C43.3029 122.043 42.8618 122.087 42.5604 122.139C41.487 122.308 41.1268 122.705 41.1268 123.315C41.1268 123.955 41.612 124.425 42.3913 124.425C42.9574 124.425 43.3764 124.219 43.6485 123.822H43.6632C43.6632 123.999 43.6779 124.183 43.7146 124.344H44.4719C44.413 124.109 44.3763 123.8 44.3763 123.359V121.962C44.3763 120.985 43.8249 120.499 42.8398 120.499ZM43.5676 122.756C43.5676 123.153 43.5088 123.352 43.3103 123.558C43.1412 123.727 42.8912 123.808 42.6339 123.808C42.2075 123.808 41.9723 123.587 41.9723 123.256C41.9723 122.918 42.1708 122.756 42.7074 122.668C42.9574 122.624 43.3176 122.587 43.5676 122.573V122.756ZM47.3027 120.558C46.8396 120.558 46.4867 120.757 46.2367 121.161H46.222V120.61H45.4427V124.344H46.2808V122.514C46.2808 121.734 46.6484 121.308 47.3174 121.308C47.413 121.308 47.5086 121.315 47.6115 121.337V120.595C47.5159 120.573 47.3983 120.558 47.3027 120.558ZM49.504 120.499C48.4968 120.499 47.9822 121.058 47.9454 121.764H48.7688C48.7909 121.367 49.0409 121.11 49.504 121.11C49.9304 121.11 50.2318 121.33 50.2318 121.881V122.029C49.9672 122.043 49.5261 122.087 49.2247 122.139C48.1513 122.308 47.7911 122.705 47.7911 123.315C47.7911 123.955 48.2763 124.425 49.0556 124.425C49.6216 124.425 50.0407 124.219 50.3127 123.822H50.3274C50.3274 123.999 50.3421 124.183 50.3789 124.344H51.1361C51.0773 124.109 51.0405 123.8 51.0405 123.359V121.962C51.0405 120.985 50.4892 120.499 49.504 120.499ZM50.2318 122.756C50.2318 123.153 50.173 123.352 49.9745 123.558C49.8054 123.727 49.5555 123.808 49.2982 123.808C48.8718 123.808 48.6365 123.587 48.6365 123.256C48.6365 122.918 48.835 122.756 49.3717 122.668C49.6216 122.624 49.9819 122.587 50.2318 122.573V122.756ZM52.9451 121.051V119.11H52.107V124.344H52.9451V122.271C52.9451 121.558 53.32 121.198 53.7979 121.198C54.2684 121.198 54.5551 121.462 54.5551 122.131V124.344H55.3932V122.058C55.3932 121.036 54.8786 120.521 54.0332 120.521C53.6141 120.521 53.2245 120.691 52.9598 121.051H52.9451Z" fill="white"/>
</g>
</g>
<defs>
<filter id="filter0_dd_13572_5963" x="108.822" y="104.214" width="50.3564" height="32.6429" filterUnits="userSpaceOnUse" color-interpolation-filters="sRGB">
<feFlood flood-opacity="0" result="BackgroundImageFix"/>
<feColorMatrix in="SourceAlpha" type="matrix" values="0 0 0 0 0 0 0 0 0 0 0 0 0 0 0 0 0 0 127 0" result="hardAlpha"/>
<feOffset/>
<feGaussianBlur stdDeviation="1.39272"/>
<feComposite in2="hardAlpha" operator="out"/>
<feColorMatrix type="matrix" values="0 0 0 0 0.0823529 0 0 0 0 0.0941176 0 0 0 0 0.117647 0 0 0 0.1 0"/>
<feBlend mode="normal" in2="BackgroundImageFix" result="effect1_dropShadow_13572_5963"/>
<feColorMatrix in="SourceAlpha" type="matrix" values="0 0 0 0 0 0 0 0 0 0 0 0 0 0 0 0 0 0 127 0" result="hardAlpha"/>
<feOffset dy="1.39272"/>
<feGaussianBlur stdDeviation="2.0891"/>
<feComposite in2="hardAlpha" operator="out"/>
<feColorMatrix type="matrix" values="0 0 0 0 0 0 0 0 0 0 0 0 0 0 0 0 0 0 0.08 0"/>
<feBlend mode="normal" in2="effect1_dropShadow_13572_5963" result="effect2_dropShadow_13572_5963"/>
<feBlend mode="normal" in="SourceGraphic" in2="effect2_dropShadow_13572_5963" result="shape"/>
</filter>
<filter id="filter1_d_13572_5963" x="116.392" y="109.929" width="35.2174" height="18.4297" filterUnits="userSpaceOnUse" color-interpolation-filters="sRGB">
<feFlood flood-opacity="0" result="BackgroundImageFix"/>
<feColorMatrix in="SourceAlpha" type="matrix" values="0 0 0 0 0 0 0 0 0 0 0 0 0 0 0 0 0 0 127 0" result="hardAlpha"/>
<feOffset/>
<feGaussianBlur stdDeviation="1.39272"/>
<feComposite in2="hardAlpha" operator="out"/>
<feColorMatrix type="matrix" values="0 0 0 0 0.0515625 0 0 0 0 0.0929804 0 0 0 0 0.225 0 0 0 0.4 0"/>
<feBlend mode="normal" in2="BackgroundImageFix" result="effect1_dropShadow_13572_5963"/>
<feBlend mode="normal" in="SourceGraphic" in2="effect1_dropShadow_13572_5963" result="shape"/>
</filter>
<filter id="filter2_f_13572_5963" x="63" y="1" width="30.7461" height="139" filterUnits="userSpaceOnUse" color-interpolation-filters="sRGB">
<feFlood flood-opacity="0" result="BackgroundImageFix"/>
<feBlend mode="normal" in="SourceGraphic" in2="BackgroundImageFix" result="shape"/>
<feGaussianBlur stdDeviation="1" result="effect1_foregroundBlur_13572_5963"/>
</filter>
<filter id="filter3_dd_13572_5963" x="60.8218" y="92.2149" width="35.1025" height="23.8218" filterUnits="userSpaceOnUse" color-interpolation-filters="sRGB">
<feFlood flood-opacity="0" result="BackgroundImageFix"/>
<feColorMatrix in="SourceAlpha" type="matrix" values="0 0 0 0 0 0 0 0 0 0 0 0 0 0 0 0 0 0 127 0" result="hardAlpha"/>
<feOffset/>
<feGaussianBlur stdDeviation="1.39272"/>
<feComposite in2="hardAlpha" operator="out"/>
<feColorMatrix type="matrix" values="0 0 0 0 0.0823529 0 0 0 0 0.0941176 0 0 0 0 0.117647 0 0 0 0.1 0"/>
<feBlend mode="normal" in2="BackgroundImageFix" result="effect1_dropShadow_13572_5963"/>
<feColorMatrix in="SourceAlpha" type="matrix" values="0 0 0 0 0 0 0 0 0 0 0 0 0 0 0 0 0 0 127 0" result="hardAlpha"/>
<feOffset dy="1.39272"/>
<feGaussianBlur stdDeviation="2.0891"/>
<feComposite in2="hardAlpha" operator="out"/>
<feColorMatrix type="matrix" values="0 0 0 0 0 0 0 0 0 0 0 0 0 0 0 0 0 0 0.08 0"/>
<feBlend mode="normal" in2="effect1_dropShadow_13572_5963" result="effect2_dropShadow_13572_5963"/>
<feBlend mode="normal" in="SourceGraphic" in2="effect2_dropShadow_13572_5963" result="shape"/>
</filter>
<filter id="filter4_d_13572_5963" x="66.1501" y="95.8533" width="24.4498" height="13.7593" filterUnits="userSpaceOnUse" color-interpolation-filters="sRGB">
<feFlood flood-opacity="0" result="BackgroundImageFix"/>
<feColorMatrix in="SourceAlpha" type="matrix" values="0 0 0 0 0 0 0 0 0 0 0 0 0 0 0 0 0 0 127 0" result="hardAlpha"/>
<feOffset/>
<feGaussianBlur stdDeviation="1.39272"/>
<feComposite in2="hardAlpha" operator="out"/>
<feColorMatrix type="matrix" values="0 0 0 0 0.0515625 0 0 0 0 0.0929804 0 0 0 0 0.225 0 0 0 0.4 0"/>
<feBlend mode="normal" in2="BackgroundImageFix" result="effect1_dropShadow_13572_5963"/>
<feBlend mode="normal" in="SourceGraphic" in2="effect1_dropShadow_13572_5963" result="shape"/>
</filter>
<filter id="filter5_f_13572_5963" x="173.457" y="0.457587" width="39.085" height="176.704" filterUnits="userSpaceOnUse" color-interpolation-filters="sRGB">
<feFlood flood-opacity="0" result="BackgroundImageFix"/>
<feBlend mode="normal" in="SourceGraphic" in2="BackgroundImageFix" result="shape"/>
<feGaussianBlur stdDeviation="1.27125" result="effect1_foregroundBlur_13572_5963"/>
</filter>
<filter id="filter6_dd_13572_5963" x="170.688" y="27.4586" width="44.6231" height="30.2836" filterUnits="userSpaceOnUse" color-interpolation-filters="sRGB">
<feFlood flood-opacity="0" result="BackgroundImageFix"/>
<feColorMatrix in="SourceAlpha" type="matrix" values="0 0 0 0 0 0 0 0 0 0 0 0 0 0 0 0 0 0 127 0" result="hardAlpha"/>
<feOffset/>
<feGaussianBlur stdDeviation="1.7705"/>
<feComposite in2="hardAlpha" operator="out"/>
<feColorMatrix type="matrix" values="0 0 0 0 0.0823529 0 0 0 0 0.0941176 0 0 0 0 0.117647 0 0 0 0.1 0"/>
<feBlend mode="normal" in2="BackgroundImageFix" result="effect1_dropShadow_13572_5963"/>
<feColorMatrix in="SourceAlpha" type="matrix" values="0 0 0 0 0 0 0 0 0 0 0 0 0 0 0 0 0 0 127 0" result="hardAlpha"/>
<feOffset dy="1.7705"/>
<feGaussianBlur stdDeviation="2.65577"/>
<feComposite in2="hardAlpha" operator="out"/>
<feColorMatrix type="matrix" values="0 0 0 0 0 0 0 0 0 0 0 0 0 0 0 0 0 0 0.08 0"/>
<feBlend mode="normal" in2="effect1_dropShadow_13572_5963" result="effect2_dropShadow_13572_5963"/>
<feBlend mode="normal" in="SourceGraphic" in2="effect2_dropShadow_13572_5963" result="shape"/>
</filter>
<filter id="filter7_d_13572_5963" x="177.461" y="32.0846" width="31.082" height="17.4915" filterUnits="userSpaceOnUse" color-interpolation-filters="sRGB">
<feFlood flood-opacity="0" result="BackgroundImageFix"/>
<feColorMatrix in="SourceAlpha" type="matrix" values="0 0 0 0 0 0 0 0 0 0 0 0 0 0 0 0 0 0 127 0" result="hardAlpha"/>
<feOffset/>
<feGaussianBlur stdDeviation="1.7705"/>
<feComposite in2="hardAlpha" operator="out"/>
<feColorMatrix type="matrix" values="0 0 0 0 0.0515625 0 0 0 0 0.0929804 0 0 0 0 0.225 0 0 0 0.4 0"/>
<feBlend mode="normal" in2="BackgroundImageFix" result="effect1_dropShadow_13572_5963"/>
<feBlend mode="normal" in="SourceGraphic" in2="effect1_dropShadow_13572_5963" result="shape"/>
</filter>
<filter id="filter8_d_13572_5963" x="146.204" y="117.613" width="23.4313" height="26.5345" filterUnits="userSpaceOnUse" color-interpolation-filters="sRGB">
<feFlood flood-opacity="0" result="BackgroundImageFix"/>
<feColorMatrix in="SourceAlpha" type="matrix" values="0 0 0 0 0 0 0 0 0 0 0 0 0 0 0 0 0 0 127 0" result="hardAlpha"/>
<feOffset dy="1.09206"/>
<feGaussianBlur stdDeviation="1.6381"/>
<feColorMatrix type="matrix" values="0 0 0 0 0 0 0 0 0 0 0 0 0 0 0 0 0 0 0.4 0"/>
<feBlend mode="normal" in2="BackgroundImageFix" result="effect1_dropShadow_13572_5963"/>
<feBlend mode="normal" in="SourceGraphic" in2="effect1_dropShadow_13572_5963" result="shape"/>
</filter>
<filter id="filter9_d_13572_5963" x="155.632" y="134.816" width="40.1896" height="31.1048" filterUnits="userSpaceOnUse" color-interpolation-filters="sRGB">
<feFlood flood-opacity="0" result="BackgroundImageFix"/>
<feColorMatrix in="SourceAlpha" type="matrix" values="0 0 0 0 0 0 0 0 0 0 0 0 0 0 0 0 0 0 127 0" result="hardAlpha"/>
<feOffset dy="2.18413"/>
<feGaussianBlur stdDeviation="2.18413"/>
<feColorMatrix type="matrix" values="0 0 0 0 0 0 0 0 0 0 0 0 0 0 0 0 0 0 0.12 0"/>
<feBlend mode="normal" in2="BackgroundImageFix" result="effect1_dropShadow_13572_5963"/>
<feBlend mode="normal" in="SourceGraphic" in2="effect1_dropShadow_13572_5963" result="shape"/>
</filter>
<filter id="filter10_f_13572_5963" x="205.064" y="40.6442" width="31.9355" height="26.0444" filterUnits="userSpaceOnUse" color-interpolation-filters="sRGB">
<feFlood flood-opacity="0" result="BackgroundImageFix"/>
<feBlend mode="normal" in="SourceGraphic" in2="BackgroundImageFix" result="shape"/>
<feGaussianBlur stdDeviation="0.5" result="effect1_foregroundBlur_13572_5963"/>
</filter>
<filter id="filter11_d_13572_5963" x="204.048" y="40.2999" width="14.4216" height="16.3319" filterUnits="userSpaceOnUse" color-interpolation-filters="sRGB">
<feFlood flood-opacity="0" result="BackgroundImageFix"/>
<feColorMatrix in="SourceAlpha" type="matrix" values="0 0 0 0 0 0 0 0 0 0 0 0 0 0 0 0 0 0 127 0" result="hardAlpha"/>
<feOffset dy="0.67216"/>
<feGaussianBlur stdDeviation="1.00824"/>
<feColorMatrix type="matrix" values="0 0 0 0 0 0 0 0 0 0 0 0 0 0 0 0 0 0 0.4 0"/>
<feBlend mode="normal" in2="BackgroundImageFix" result="effect1_dropShadow_13572_5963"/>
<feBlend mode="normal" in="SourceGraphic" in2="effect1_dropShadow_13572_5963" result="shape"/>
</filter>
<filter id="filter12_d_13572_5963" x="210.311" y="50.6557" width="28.3773" height="19.0659" filterUnits="userSpaceOnUse" color-interpolation-filters="sRGB">
<feFlood flood-opacity="0" result="BackgroundImageFix"/>
<feColorMatrix in="SourceAlpha" type="matrix" values="0 0 0 0 0 0 0 0 0 0 0 0 0 0 0 0 0 0 127 0" result="hardAlpha"/>
<feOffset dy="1.34432"/>
<feGaussianBlur stdDeviation="1.34432"/>
<feColorMatrix type="matrix" values="0 0 0 0 0 0 0 0 0 0 0 0 0 0 0 0 0 0 0.12 0"/>
<feBlend mode="normal" in2="BackgroundImageFix" result="effect1_dropShadow_13572_5963"/>
<feBlend mode="normal" in="SourceGraphic" in2="effect1_dropShadow_13572_5963" result="shape"/>
</filter>
<filter id="filter13_f_13572_5963" x="33" y="102.644" width="33.9355" height="26.0444" filterUnits="userSpaceOnUse" color-interpolation-filters="sRGB">
<feFlood flood-opacity="0" result="BackgroundImageFix"/>
<feBlend mode="normal" in="SourceGraphic" in2="BackgroundImageFix" result="shape"/>
<feGaussianBlur stdDeviation="0.5" result="effect1_foregroundBlur_13572_5963"/>
</filter>
<filter id="filter14_d_13572_5963" x="53.5304" y="102.3" width="14.4216" height="16.3319" filterUnits="userSpaceOnUse" color-interpolation-filters="sRGB">
<feFlood flood-opacity="0" result="BackgroundImageFix"/>
<feColorMatrix in="SourceAlpha" type="matrix" values="0 0 0 0 0 0 0 0 0 0 0 0 0 0 0 0 0 0 127 0" result="hardAlpha"/>
<feOffset dy="0.67216"/>
<feGaussianBlur stdDeviation="1.00824"/>
<feColorMatrix type="matrix" values="0 0 0 0 0 0 0 0 0 0 0 0 0 0 0 0 0 0 0.4 0"/>
<feBlend mode="normal" in2="BackgroundImageFix" result="effect1_dropShadow_13572_5963"/>
<feBlend mode="normal" in="SourceGraphic" in2="effect1_dropShadow_13572_5963" result="shape"/>
</filter>
<filter id="filter15_d_13572_5963" x="31.3114" y="112.656" width="30.3773" height="19.0659" filterUnits="userSpaceOnUse" color-interpolation-filters="sRGB">
<feFlood flood-opacity="0" result="BackgroundImageFix"/>
<feColorMatrix in="SourceAlpha" type="matrix" values="0 0 0 0 0 0 0 0 0 0 0 0 0 0 0 0 0 0 127 0" result="hardAlpha"/>
<feOffset dy="1.34432"/>
<feGaussianBlur stdDeviation="1.34432"/>
<feColorMatrix type="matrix" values="0 0 0 0 0 0 0 0 0 0 0 0 0 0 0 0 0 0 0.12 0"/>
<feBlend mode="normal" in2="BackgroundImageFix" result="effect1_dropShadow_13572_5963"/>
<feBlend mode="normal" in="SourceGraphic" in2="effect1_dropShadow_13572_5963" result="shape"/>
</filter>
</defs>
</svg>
