<svg width="270" height="270" viewBox="0 0 270 270" fill="none" xmlns="http://www.w3.org/2000/svg">
<circle cx="174.913" cy="132.914" r="28.3429" fill="#1A2332" stroke="#00FFBB" stroke-width="2"/>
<circle cx="93.4268" cy="132.914" r="28.3429" fill="#1A2332" stroke="#9FEF00" stroke-width="2"/>
<g filter="url(#filter0_f_13572_5962)">
<circle cx="132.398" cy="132.914" r="38.0857" fill="#A4B1CD" fill-opacity="0.2"/>
<circle cx="132.398" cy="132.914" r="38.0857" stroke="#111927" stroke-width="2"/>
</g>
<g clip-path="url(#clip0_13572_5962)">
<rect x="152.77" y="110.771" width="44.2857" height="44.2857" rx="22.1429" fill="#ABC5DE"/>
<g filter="url(#filter1_d_13572_5962)">
<g clip-path="url(#clip1_13572_5962)">
<path d="M188.493 146.643C189.575 148.71 190.117 156.238 190.117 156.238H159.707C159.707 156.238 160.248 148.71 161.331 146.643C162.955 143.543 174.912 139.557 174.912 139.557C174.912 139.557 186.869 143.543 188.493 146.643Z" fill="#111927"/>
<mask id="mask0_13572_5962" style="mask-type:alpha" maskUnits="userSpaceOnUse" x="159" y="139" width="32" height="18">
<path d="M188.493 146.643C189.575 148.71 190.117 156.238 190.117 156.238H159.707C159.707 156.238 160.248 148.71 161.331 146.643C162.955 143.543 174.912 139.557 174.912 139.557C174.912 139.557 186.869 143.543 188.493 146.643Z" fill="url(#paint0_linear_13572_5962)"/>
</mask>
<g mask="url(#mask0_13572_5962)">
<path d="M188.787 154.91C188.787 154.734 188.839 154.563 188.937 154.417C189.034 154.272 189.172 154.158 189.334 154.091C189.496 154.024 189.674 154.007 189.846 154.041C190.018 154.075 190.176 154.159 190.299 154.283C190.423 154.407 190.508 154.565 190.542 154.737C190.576 154.909 190.559 155.087 190.491 155.248C190.424 155.41 190.311 155.549 190.165 155.646C190.02 155.743 189.848 155.795 189.673 155.795C189.438 155.795 189.213 155.702 189.047 155.536C188.881 155.37 188.787 155.144 188.787 154.91V154.91ZM182.883 154.91C182.883 154.734 182.935 154.563 183.032 154.417C183.129 154.272 183.268 154.158 183.429 154.091C183.591 154.024 183.769 154.007 183.941 154.041C184.113 154.075 184.271 154.159 184.395 154.283C184.519 154.407 184.603 154.565 184.637 154.737C184.671 154.909 184.654 155.087 184.587 155.248C184.52 155.41 184.406 155.549 184.261 155.646C184.115 155.743 183.944 155.795 183.768 155.795C183.534 155.795 183.308 155.702 183.142 155.536C182.976 155.37 182.883 155.144 182.883 154.91ZM176.978 154.91C176.978 154.734 177.03 154.563 177.127 154.417C177.225 154.272 177.363 154.158 177.525 154.091C177.687 154.024 177.865 154.007 178.036 154.041C178.208 154.075 178.366 154.159 178.49 154.283C178.614 154.407 178.698 154.565 178.732 154.737C178.767 154.909 178.749 155.087 178.682 155.248C178.615 155.41 178.501 155.549 178.356 155.646C178.21 155.743 178.039 155.795 177.864 155.795C177.629 155.795 177.403 155.702 177.237 155.536C177.071 155.37 176.978 155.144 176.978 154.91ZM171.073 154.91C171.073 154.734 171.125 154.563 171.222 154.417C171.32 154.272 171.458 154.158 171.62 154.091C171.782 154.024 171.96 154.007 172.132 154.041C172.304 154.075 172.461 154.159 172.585 154.283C172.709 154.407 172.793 154.565 172.828 154.737C172.862 154.909 172.844 155.087 172.777 155.248C172.71 155.41 172.597 155.549 172.451 155.646C172.305 155.743 172.134 155.795 171.959 155.795C171.724 155.795 171.499 155.702 171.333 155.536C171.167 155.37 171.073 155.144 171.073 154.91ZM165.168 154.91C165.168 154.734 165.22 154.563 165.318 154.417C165.415 154.272 165.553 154.158 165.715 154.091C165.877 154.024 166.055 154.007 166.227 154.041C166.399 154.075 166.557 154.159 166.68 154.283C166.804 154.407 166.889 154.565 166.923 154.737C166.957 154.909 166.939 155.087 166.872 155.248C166.805 155.41 166.692 155.549 166.546 155.646C166.401 155.743 166.229 155.795 166.054 155.795C165.819 155.795 165.594 155.702 165.428 155.536C165.262 155.37 165.168 155.144 165.168 154.91ZM159.264 154.91C159.264 154.734 159.316 154.563 159.413 154.417C159.51 154.272 159.649 154.158 159.81 154.091C159.972 154.024 160.15 154.007 160.322 154.041C160.494 154.075 160.652 154.159 160.776 154.283C160.9 154.407 160.984 154.565 161.018 154.737C161.052 154.909 161.035 155.087 160.968 155.248C160.901 155.41 160.787 155.549 160.641 155.646C160.496 155.743 160.325 155.795 160.149 155.795C159.914 155.795 159.689 155.702 159.523 155.536C159.357 155.37 159.264 155.144 159.264 154.91V154.91ZM185.835 151.957C185.835 151.782 185.887 151.611 185.984 151.465C186.082 151.319 186.22 151.206 186.382 151.139C186.544 151.072 186.722 151.054 186.894 151.088C187.065 151.123 187.223 151.207 187.347 151.331C187.471 151.455 187.555 151.613 187.59 151.784C187.624 151.956 187.606 152.134 187.539 152.296C187.472 152.458 187.359 152.596 187.213 152.694C187.067 152.791 186.896 152.843 186.721 152.843C186.486 152.843 186.261 152.75 186.095 152.583C185.928 152.417 185.835 152.192 185.835 151.957ZM179.93 151.957C179.93 151.782 179.982 151.611 180.08 151.465C180.177 151.319 180.315 151.206 180.477 151.139C180.639 151.072 180.817 151.054 180.989 151.088C181.161 151.123 181.318 151.207 181.442 151.331C181.566 151.455 181.651 151.613 181.685 151.784C181.719 151.956 181.701 152.134 181.634 152.296C181.567 152.458 181.454 152.596 181.308 152.694C181.162 152.791 180.991 152.843 180.816 152.843C180.581 152.843 180.356 152.75 180.19 152.583C180.024 152.417 179.93 152.192 179.93 151.957ZM174.026 151.957C174.026 151.782 174.078 151.611 174.175 151.465C174.272 151.319 174.411 151.206 174.572 151.139C174.734 151.072 174.912 151.054 175.084 151.088C175.256 151.123 175.414 151.207 175.538 151.331C175.661 151.455 175.746 151.613 175.78 151.784C175.814 151.956 175.797 152.134 175.73 152.296C175.663 152.458 175.549 152.596 175.403 152.694C175.258 152.791 175.086 152.843 174.911 152.843C174.676 152.843 174.451 152.75 174.285 152.583C174.119 152.417 174.026 152.192 174.026 151.957V151.957ZM168.121 151.957C168.121 151.782 168.173 151.611 168.27 151.465C168.367 151.319 168.506 151.206 168.668 151.139C168.829 151.072 169.008 151.054 169.179 151.088C169.351 151.123 169.509 151.207 169.633 151.331C169.757 151.455 169.841 151.613 169.875 151.784C169.909 151.956 169.892 152.134 169.825 152.296C169.758 152.458 169.644 152.596 169.499 152.694C169.353 152.791 169.182 152.843 169.007 152.843C168.772 152.843 168.546 152.75 168.38 152.583C168.214 152.417 168.121 152.192 168.121 151.957ZM162.216 151.957C162.216 151.782 162.268 151.611 162.365 151.465C162.463 151.319 162.601 151.206 162.763 151.139C162.925 151.072 163.103 151.054 163.275 151.088C163.446 151.123 163.604 151.207 163.728 151.331C163.852 151.455 163.936 151.613 163.97 151.784C164.005 151.956 163.987 152.134 163.92 152.296C163.853 152.458 163.739 152.596 163.594 152.694C163.448 152.791 163.277 152.843 163.102 152.843C162.867 152.843 162.642 152.75 162.475 152.583C162.309 152.417 162.216 152.192 162.216 151.957ZM188.787 149.005C188.787 148.83 188.839 148.658 188.937 148.513C189.034 148.367 189.172 148.253 189.334 148.186C189.496 148.119 189.674 148.102 189.846 148.136C190.018 148.17 190.176 148.255 190.299 148.378C190.423 148.502 190.508 148.66 190.542 148.832C190.576 149.004 190.559 149.182 190.491 149.344C190.424 149.506 190.311 149.644 190.165 149.741C190.02 149.839 189.848 149.89 189.673 149.89C189.438 149.89 189.213 149.797 189.047 149.631C188.881 149.465 188.787 149.24 188.787 149.005V149.005ZM182.883 149.005C182.883 148.83 182.935 148.658 183.032 148.513C183.129 148.367 183.268 148.253 183.429 148.186C183.591 148.119 183.769 148.102 183.941 148.136C184.113 148.17 184.271 148.255 184.395 148.378C184.519 148.502 184.603 148.66 184.637 148.832C184.671 149.004 184.654 149.182 184.587 149.344C184.52 149.506 184.406 149.644 184.261 149.741C184.115 149.839 183.944 149.89 183.768 149.89C183.534 149.89 183.308 149.797 183.142 149.631C182.976 149.465 182.883 149.24 182.883 149.005ZM176.978 149.005C176.978 148.83 177.03 148.658 177.127 148.513C177.225 148.367 177.363 148.253 177.525 148.186C177.687 148.119 177.865 148.102 178.036 148.136C178.208 148.17 178.366 148.255 178.49 148.378C178.614 148.502 178.698 148.66 178.732 148.832C178.767 149.004 178.749 149.182 178.682 149.344C178.615 149.506 178.501 149.644 178.356 149.741C178.21 149.839 178.039 149.89 177.864 149.89C177.629 149.89 177.403 149.797 177.237 149.631C177.071 149.465 176.978 149.24 176.978 149.005ZM171.073 149.005C171.073 148.83 171.125 148.658 171.222 148.513C171.32 148.367 171.458 148.253 171.62 148.186C171.782 148.119 171.96 148.102 172.132 148.136C172.304 148.17 172.461 148.255 172.585 148.378C172.709 148.502 172.793 148.66 172.828 148.832C172.862 149.004 172.844 149.182 172.777 149.344C172.71 149.506 172.597 149.644 172.451 149.741C172.305 149.839 172.134 149.89 171.959 149.89C171.724 149.89 171.499 149.797 171.333 149.631C171.167 149.465 171.073 149.24 171.073 149.005ZM165.168 149.005C165.168 148.83 165.22 148.658 165.318 148.513C165.415 148.367 165.553 148.253 165.715 148.186C165.877 148.119 166.055 148.102 166.227 148.136C166.399 148.17 166.557 148.255 166.68 148.378C166.804 148.502 166.889 148.66 166.923 148.832C166.957 149.004 166.939 149.182 166.872 149.344C166.805 149.506 166.692 149.644 166.546 149.741C166.401 149.839 166.229 149.89 166.054 149.89C165.819 149.89 165.594 149.797 165.428 149.631C165.262 149.465 165.168 149.24 165.168 149.005ZM159.264 149.005C159.264 148.83 159.316 148.658 159.413 148.513C159.51 148.367 159.649 148.253 159.81 148.186C159.972 148.119 160.15 148.102 160.322 148.136C160.494 148.17 160.652 148.255 160.776 148.378C160.9 148.502 160.984 148.66 161.018 148.832C161.052 149.004 161.035 149.182 160.968 149.344C160.901 149.506 160.787 149.644 160.641 149.741C160.496 149.839 160.325 149.89 160.149 149.89C159.914 149.89 159.689 149.797 159.523 149.631C159.357 149.465 159.264 149.24 159.264 149.005V149.005ZM185.835 146.052C185.835 145.877 185.887 145.706 185.984 145.56C186.082 145.415 186.22 145.301 186.382 145.234C186.544 145.167 186.722 145.149 186.894 145.184C187.065 145.218 187.223 145.302 187.347 145.426C187.471 145.55 187.555 145.708 187.59 145.88C187.624 146.051 187.606 146.229 187.539 146.391C187.472 146.553 187.359 146.691 187.213 146.789C187.067 146.886 186.896 146.938 186.721 146.938C186.486 146.938 186.261 146.845 186.095 146.679C185.928 146.513 185.835 146.287 185.835 146.052ZM179.93 146.052C179.93 145.877 179.982 145.706 180.08 145.56C180.177 145.415 180.315 145.301 180.477 145.234C180.639 145.167 180.817 145.149 180.989 145.184C181.161 145.218 181.318 145.302 181.442 145.426C181.566 145.55 181.651 145.708 181.685 145.88C181.719 146.051 181.701 146.229 181.634 146.391C181.567 146.553 181.454 146.691 181.308 146.789C181.162 146.886 180.991 146.938 180.816 146.938C180.581 146.938 180.356 146.845 180.19 146.679C180.024 146.513 179.93 146.287 179.93 146.052ZM174.026 146.052C174.026 145.877 174.078 145.706 174.175 145.56C174.272 145.415 174.411 145.301 174.572 145.234C174.734 145.167 174.912 145.149 175.084 145.184C175.256 145.218 175.414 145.302 175.538 145.426C175.661 145.55 175.746 145.708 175.78 145.88C175.814 146.051 175.797 146.229 175.73 146.391C175.663 146.553 175.549 146.691 175.403 146.789C175.258 146.886 175.086 146.938 174.911 146.938C174.676 146.938 174.451 146.845 174.285 146.679C174.119 146.513 174.026 146.287 174.026 146.052V146.052ZM168.121 146.052C168.121 145.877 168.173 145.706 168.27 145.56C168.367 145.415 168.506 145.301 168.668 145.234C168.829 145.167 169.008 145.149 169.179 145.184C169.351 145.218 169.509 145.302 169.633 145.426C169.757 145.55 169.841 145.708 169.875 145.88C169.909 146.051 169.892 146.229 169.825 146.391C169.758 146.553 169.644 146.691 169.499 146.789C169.353 146.886 169.182 146.938 169.007 146.938C168.772 146.938 168.546 146.845 168.38 146.679C168.214 146.513 168.121 146.287 168.121 146.052ZM162.216 146.052C162.216 145.877 162.268 145.706 162.365 145.56C162.463 145.415 162.601 145.301 162.763 145.234C162.925 145.167 163.103 145.149 163.275 145.184C163.446 145.218 163.604 145.302 163.728 145.426C163.852 145.55 163.936 145.708 163.97 145.88C164.005 146.051 163.987 146.229 163.92 146.391C163.853 146.553 163.739 146.691 163.594 146.789C163.448 146.886 163.277 146.938 163.102 146.938C162.867 146.938 162.642 146.845 162.475 146.679C162.309 146.513 162.216 146.287 162.216 146.052ZM188.787 143.1C188.787 142.925 188.839 142.754 188.937 142.608C189.034 142.462 189.172 142.349 189.334 142.282C189.496 142.215 189.674 142.197 189.846 142.231C190.018 142.265 190.176 142.35 190.299 142.474C190.423 142.598 190.508 142.755 190.542 142.927C190.576 143.099 190.559 143.277 190.491 143.439C190.424 143.601 190.311 143.739 190.165 143.836C190.02 143.934 189.848 143.986 189.673 143.986C189.438 143.986 189.213 143.892 189.047 143.726C188.881 143.56 188.787 143.335 188.787 143.1V143.1ZM182.883 143.1C182.883 142.925 182.935 142.754 183.032 142.608C183.129 142.462 183.268 142.349 183.429 142.282C183.591 142.215 183.769 142.197 183.941 142.231C184.113 142.265 184.271 142.35 184.395 142.474C184.519 142.598 184.603 142.755 184.637 142.927C184.671 143.099 184.654 143.277 184.587 143.439C184.52 143.601 184.406 143.739 184.261 143.836C184.115 143.934 183.944 143.986 183.768 143.986C183.534 143.986 183.308 143.892 183.142 143.726C182.976 143.56 182.883 143.335 182.883 143.1V143.1ZM165.168 143.1C165.168 142.925 165.22 142.754 165.318 142.608C165.415 142.462 165.553 142.349 165.715 142.282C165.877 142.215 166.055 142.197 166.227 142.231C166.399 142.265 166.557 142.35 166.68 142.474C166.804 142.598 166.889 142.755 166.923 142.927C166.957 143.099 166.939 143.277 166.872 143.439C166.805 143.601 166.692 143.739 166.546 143.836C166.401 143.934 166.229 143.986 166.054 143.986C165.819 143.986 165.594 143.892 165.428 143.726C165.262 143.56 165.168 143.335 165.168 143.1V143.1ZM159.264 143.1C159.264 142.925 159.316 142.754 159.413 142.608C159.51 142.462 159.649 142.349 159.81 142.282C159.972 142.215 160.15 142.197 160.322 142.231C160.494 142.265 160.652 142.35 160.776 142.474C160.9 142.598 160.984 142.755 161.018 142.927C161.052 143.099 161.035 143.277 160.968 143.439C160.901 143.601 160.787 143.739 160.641 143.836C160.496 143.934 160.325 143.986 160.149 143.986C159.914 143.986 159.689 143.892 159.523 143.726C159.357 143.56 159.264 143.335 159.264 143.1V143.1Z" fill="#9FEF00"/>
</g>
<path d="M176.515 118.551C175.925 115.968 178.724 113.985 181.608 115.346C188.398 118.551 184.359 123.024 181.849 122.729C179.34 122.433 177.105 121.134 176.515 118.551Z" fill="url(#paint1_linear_13572_5962)"/>
<path opacity="0.6" d="M178.971 118.964C178.971 118.964 183.99 122.212 185.245 120.44C185.374 121.18 184.779 123.27 183.842 123.245C181.041 123.172 178.971 118.964 178.971 118.964Z" fill="black"/>
<path d="M178.161 134.833C174.99 136.357 174.527 136.275 167.532 130.552C156.978 121.917 166.942 114.019 177.644 118.226C189.232 123.319 185.35 131.38 178.161 134.833Z" fill="url(#paint2_linear_13572_5962)"/>
<path d="M178.455 140.886C177.373 142.657 172.452 142.657 171.37 140.886V137.933C171.37 137.933 170.888 137.948 170.558 137.933C167.105 137.786 165.951 132.231 166.493 126.676C166.89 122.607 170.336 128.19 175.946 124.279C175.724 128.56 177.57 128.117 178.381 127.6C182.072 125.902 182.103 132.861 178.455 132.324V140.886Z" fill="url(#paint3_linear_13572_5962)"/>
<path d="M171.37 137.933C173.362 137.785 176.333 135.704 176.333 135.704C176.333 135.704 174.912 138.744 171.37 139.261L171.37 137.933Z" fill="#DB6F3D"/>
<path d="M178.455 140.511V139.557C178.726 139.557 179.501 140.197 179.9 140.738C181.476 142.879 179.728 144.798 178.302 144.798C176.503 144.798 175.311 143.295 174.912 142.572C174.514 143.295 173.321 144.798 171.523 144.798C170.097 144.798 168.349 142.879 169.925 140.738C170.323 140.197 171.099 139.557 171.369 139.557V140.511C171.369 141.64 173.841 142.162 174.907 142.211C175.917 142.162 178.455 141.64 178.455 140.511Z" fill="white"/>
</g>
</g>
</g>
<g clip-path="url(#clip2_13572_5962)">
<rect x="71.2852" y="110.771" width="44.2857" height="44.2857" rx="22.1429" fill="#FABCA7"/>
<g filter="url(#filter2_d_13572_5962)">
<g clip-path="url(#clip3_13572_5962)">
<path d="M97.3494 140.23V141.895C97.3494 144.116 100.541 145.087 100.541 145.087C100.541 145.087 96.8638 147.862 93.0478 147.862C89.2319 147.862 85.5547 145.087 85.5547 145.087C85.5547 145.087 88.7713 144.116 88.7462 141.895C88.7211 139.675 88.7379 138.371 88.7211 134.567C86.7324 131.989 86.86 130.259 87.9475 129.043C91.5908 124.966 101.512 126.354 101.512 126.354C101.512 126.354 102.438 136.344 100.333 139.259C99.4309 140.508 97.3494 140.23 97.3494 140.23Z" fill="url(#paint4_linear_13572_5962)"/>
<path style="mix-blend-mode:multiply" opacity="0.6" d="M97.3489 140.23C94.2961 139.883 92.4922 138.565 92.4922 138.565C93.6311 140.25 95.3667 141.44 97.3489 141.895V140.23Z" fill="url(#paint5_linear_13572_5962)"/>
<path d="M107.618 149.293C108.939 151.979 109.699 158.173 109.699 158.173H76.3965C76.3965 158.173 77.1572 151.978 78.4779 149.293C79.7986 146.607 87.5113 144.117 87.5113 144.117C88.9979 147.168 97.1564 147.168 98.5805 144.116C98.5805 144.116 106.297 146.607 107.618 149.293Z" fill="#111927"/>
<path d="M92.4922 154.662C92.4922 154.552 92.5247 154.444 92.5857 154.353C92.6467 154.262 92.7334 154.191 92.8348 154.149C92.9362 154.107 93.0478 154.096 93.1555 154.117C93.2632 154.139 93.3621 154.191 93.4397 154.269C93.5173 154.347 93.5702 154.446 93.5916 154.553C93.613 154.661 93.602 154.773 93.56 154.874C93.518 154.975 93.4469 155.062 93.3556 155.123C93.2643 155.184 93.157 155.217 93.0472 155.217C92.9 155.217 92.7588 155.158 92.6548 155.054C92.5507 154.95 92.4922 154.809 92.4922 154.662ZM92.4922 151.886C92.4922 151.777 92.5247 151.669 92.5857 151.578C92.6467 151.487 92.7334 151.415 92.8348 151.373C92.9362 151.331 93.0478 151.32 93.1555 151.342C93.2632 151.363 93.3621 151.416 93.4397 151.494C93.5173 151.571 93.5702 151.67 93.5916 151.778C93.613 151.886 93.602 151.997 93.56 152.099C93.518 152.2 93.4469 152.287 93.3556 152.348C93.2643 152.409 93.157 152.441 93.0472 152.441C92.9 152.441 92.7588 152.383 92.6548 152.279C92.5507 152.175 92.4922 152.033 92.4922 151.886ZM92.4922 149.111C92.4922 149.001 92.5247 148.894 92.5857 148.803C92.6467 148.711 92.7334 148.64 92.8348 148.598C92.9362 148.556 93.0478 148.545 93.1555 148.567C93.2632 148.588 93.3621 148.641 93.4397 148.719C93.5173 148.796 93.5702 148.895 93.5916 149.003C93.613 149.11 93.602 149.222 93.56 149.323C93.518 149.425 93.4469 149.512 93.3556 149.573C93.2643 149.634 93.157 149.666 93.0472 149.666C92.9 149.666 92.7588 149.608 92.6548 149.504C92.5507 149.399 92.4922 149.258 92.4922 149.111V149.111Z" fill="white"/>
<path d="M90.4335 130.407C89.9922 130.028 89.4561 129.773 88.6981 130.167C86.9013 131.1 88.2612 134.68 89.8569 134.68C90.2732 134.68 90.4803 135.987 88.6268 136.9C88.6268 135.443 86.4066 131.835 86.2124 128.55C83.9783 127.719 84.5333 124.39 86.0671 124.39C85.8223 121.339 90.7083 119.763 92.6001 121.514C94.5242 119.208 99.3809 120.387 99.6741 122.388C103.014 120.605 105.209 125.73 102.082 127.719C100.795 128.538 97.7851 128.849 93.4401 128.849C92.7841 128.849 92.4167 129.012 92.6001 129.823C92.9552 131.395 92.1308 132.385 90.4335 130.407Z" fill="url(#paint6_linear_13572_5962)"/>
</g>
</g>
</g>
<circle cx="132.4" cy="132.914" r="28.3429" fill="#1A2332" stroke="#111927" stroke-width="2"/>
<circle cx="132.399" cy="132.914" r="22.1429" fill="#111927"/>
<circle cx="52.6847" cy="132.914" r="28.3429" fill="#1A2332" stroke="#9FEF00" stroke-width="2"/>
<circle cx="218.314" cy="132.914" r="28.3429" fill="#1A2332" stroke="#00FFBB" stroke-width="2"/>
<g clip-path="url(#clip4_13572_5962)">
<rect x="30.541" y="110.771" width="44.2857" height="44.2857" rx="22.1429" fill="#ABC5DE"/>
<g filter="url(#filter3_d_13572_5962)">
<g clip-path="url(#clip5_13572_5962)">
<path d="M63.8617 136.2C65.155 131.905 65.9521 124.562 60.5137 119.54C56.3574 115.702 45.1289 115.315 41.2229 123.685C40.5708 125.082 41.462 127.272 43.2157 127.193C43.9049 127.161 44.3317 129.345 44.7303 130.7C44.1723 136.2 39.201 136.302 36.6791 140.505C33.5703 145.686 37.3966 153.339 46.5637 153.339C55.7309 153.339 60.9859 145.751 63.8617 136.2Z" fill="url(#paint7_linear_13572_5962)"/>
<path d="M66.9714 148.783C68.1405 151.035 68.7251 159.238 68.7251 159.238H35.8828C35.8828 159.238 36.4674 151.035 37.6365 148.783C39.3902 145.406 52.304 141.063 52.304 141.063C52.304 141.063 65.2177 145.406 66.9714 148.783Z" fill="#FF6A74"/>
<path d="M56.1304 142.976C56.1304 142.976 54.0951 144.092 52.2228 144.092C50.3504 144.092 48.4778 142.976 48.4778 142.976V139.469C48.075 139.532 47.6669 139.556 47.2594 139.541C43.4351 139.541 41.993 133.97 42.7383 127.193C43.2166 127.193 44.3326 127.193 45.9269 124.961C45.5283 128.069 50.1518 127.591 51.9055 125.12C51.0286 128.069 53.3404 130.062 55.3332 128.867C59.241 126.522 60.1194 133.669 56.1304 133.729V142.976Z" fill="url(#paint8_linear_13572_5962)"/>
<g style="mix-blend-mode:multiply" opacity="0.782">
<path d="M48.4785 139.469C50.4562 139.104 52.3486 138.375 54.0585 137.316C54.0585 137.316 52.0657 140.744 48.4785 140.744V139.469Z" fill="#FFD7B8"/>
</g>
<path d="M52.3096 143.929C53.4618 143.876 56.1306 143.312 56.1306 142.093V141.063C56.423 141.063 57.2602 141.753 57.6908 142.338C59.3929 144.65 57.5049 146.723 55.9652 146.723C54.0224 146.723 52.7348 145.099 52.3044 144.318C51.8739 145.1 50.5864 146.723 48.6436 146.723C47.1038 146.723 45.2158 144.65 46.9179 142.338C47.3485 141.753 48.1857 141.063 48.4781 141.063V142.093C48.4781 143.312 51.219 143.876 52.3096 143.929Z" fill="white"/>
<path d="M51.666 154.774C51.666 154.648 51.7034 154.524 51.7735 154.419C51.8436 154.315 51.9432 154.233 52.0597 154.185C52.1762 154.136 52.3044 154.124 52.4281 154.148C52.5518 154.173 52.6655 154.234 52.7547 154.323C52.8438 154.412 52.9046 154.526 52.9292 154.649C52.9538 154.773 52.9412 154.901 52.8929 155.018C52.8446 155.134 52.7629 155.234 52.658 155.304C52.5532 155.374 52.4299 155.411 52.3037 155.411C52.1346 155.411 51.9724 155.344 51.8528 155.225C51.7332 155.105 51.666 154.943 51.666 154.774ZM51.666 151.585C51.666 151.459 51.7034 151.336 51.7735 151.231C51.8436 151.126 51.9432 151.044 52.0597 150.996C52.1762 150.948 52.3044 150.935 52.4281 150.96C52.5518 150.984 52.6655 151.045 52.7547 151.134C52.8438 151.223 52.9046 151.337 52.9292 151.461C52.9538 151.584 52.9412 151.713 52.8929 151.829C52.8446 151.946 52.7629 152.045 52.658 152.115C52.5532 152.185 52.4299 152.223 52.3037 152.223C52.1346 152.223 51.9724 152.156 51.8528 152.036C51.7332 151.916 51.666 151.754 51.666 151.585ZM51.666 148.397C51.666 148.27 51.7034 148.147 51.7735 148.042C51.8436 147.937 51.9432 147.856 52.0597 147.807C52.1762 147.759 52.3044 147.746 52.4281 147.771C52.5518 147.796 52.6655 147.856 52.7547 147.946C52.8438 148.035 52.9046 148.148 52.9292 148.272C52.9538 148.396 52.9412 148.524 52.8929 148.641C52.8446 148.757 52.7629 148.857 52.658 148.927C52.5532 148.997 52.4299 149.034 52.3037 149.034C52.1346 149.034 51.9724 148.967 51.8528 148.847C51.7332 148.728 51.666 148.566 51.666 148.397V148.397Z" fill="url(#paint9_linear_13572_5962)"/>
</g>
</g>
</g>
<g clip-path="url(#clip6_13572_5962)">
<rect x="196.17" y="110.771" width="44.2857" height="44.2857" rx="22.1429" fill="#B5D1C3"/>
<g filter="url(#filter4_d_13572_5962)">
<g clip-path="url(#clip7_13572_5962)">
<path d="M216.007 143.356V147.138C216.007 147.867 226.765 147.622 226.765 146.572C226.765 145.583 226.745 141.104 226.765 136.496C229.174 133.373 229.174 131.421 227.269 129.404C225.365 127.387 211.805 126.379 211.805 126.379C211.805 126.379 210.787 136.163 210.628 138.818C210.564 139.885 209.872 143.356 212.561 143.356H216.007Z" fill="#544338"/>
<g style="mix-blend-mode:multiply">
<path d="M216.011 143.033C218.201 142.794 220.318 142.103 222.227 141.003C222.227 141.003 220.882 144.197 216.011 145.063V143.033Z" fill="#FFD7B8"/>
</g>
<path d="M203.735 154.67C202.668 156.839 201.828 160.426 201.214 165.428H241.557C240.942 160.425 240.102 156.839 239.035 154.67C237.972 152.509 228.109 148.348 228.109 148.348C228.109 148.348 227.913 146.447 227.437 146.174C226.961 145.901 215.901 145.902 215.334 146.174C214.767 146.447 214.661 148.347 214.661 148.347C214.661 148.347 204.796 152.513 203.735 154.67Z" fill="white"/>
<path d="M224.576 131.456C225.111 130.997 225.76 130.688 226.678 131.165C228.855 132.295 227.41 136.655 224.974 136.57C224.134 136.541 224.519 138.216 226.765 139.322C226.765 137.557 229.454 133.186 229.69 129.207C232.396 128.2 231.723 124.167 229.866 124.167C230.162 120.471 224.243 118.562 221.951 120.683C219.621 117.889 213.737 119.318 213.382 121.742C209.336 119.582 206.677 125.79 210.465 128.2C212.024 129.191 215.67 129.569 220.934 129.569C223.46 129.569 222.007 135.481 221.217 137.389C220.209 139.826 214.578 140.162 212.813 139.91C211.434 139.713 210.712 139.154 210.627 138.818C209.367 142.18 210.964 144.197 213.485 144.197C217.772 144.197 222.058 142.936 222.73 139.826C223.266 137.351 223.236 133.357 224.576 131.456Z" fill="#261B16"/>
</g>
</g>
</g>
<path opacity="0.12" d="M130.203 132.914C132.396 132.914 134.175 131.13 134.175 128.929C134.175 126.727 132.396 124.943 130.203 124.943C128.009 124.943 126.23 126.727 126.23 128.929C126.23 131.13 128.009 132.914 130.203 132.914Z" fill="white"/>
<path d="M131.968 136.014H127.996C126.764 136.014 126.148 136.014 125.647 136.167C124.518 136.51 123.635 137.396 123.293 138.529C123.141 139.032 123.141 139.65 123.141 140.886M138.147 140.886V135.571M135.499 138.229H140.795M134.175 128.929C134.175 131.13 132.396 132.914 130.202 132.914C128.009 132.914 126.23 131.13 126.23 128.929C126.23 126.727 128.009 124.943 130.202 124.943C132.396 124.943 134.175 126.727 134.175 128.929Z" stroke="white" stroke-width="2" stroke-linecap="round" stroke-linejoin="round"/>
<path d="M102.599 85.8698C102.599 85.8698 120.015 67.7181 155.611 78.8128M104.941 78.257C104.941 78.257 101.779 85.6747 102.182 86.1219C102.585 86.5704 108.323 87.4182 109.057 87.4264" stroke="#00FFBB" stroke-width="2" stroke-miterlimit="10" stroke-linecap="round" stroke-linejoin="round"/>
<path d="M131.702 77.2589C131.702 77.2589 154.173 65.9531 184.032 88.2824M136.448 70.8627C136.448 70.8627 130.993 76.8015 131.224 77.3573C131.455 77.9147 136.582 80.6274 137.27 80.8797" stroke="#00FFBB" stroke-width="2" stroke-miterlimit="10" stroke-linecap="round" stroke-linejoin="round"/>
<g filter="url(#filter5_d_13572_5962)">
<circle cx="145.116" cy="73.8871" r="19.6827" transform="rotate(-30 145.116 73.8871)" fill="#1A2332"/>
<circle cx="145.116" cy="73.8871" r="19.6827" transform="rotate(-30 145.116 73.8871)" stroke="#00FFBB" stroke-width="2"/>
</g>
<g clip-path="url(#clip8_13572_5962)">
<rect x="130.467" y="59.2362" width="34.7225" height="34.7225" rx="17.3613" fill="#AEA8D6"/>
<g filter="url(#filter6_d_13572_5962)">
<g clip-path="url(#clip9_13572_5962)">
<path d="M151.194 85.1024C150.749 83.3165 150.151 79.639 150.814 72.9688C151.815 62.9036 142.447 63.9796 139.045 71.7973C138.681 72.6337 136.073 73.3509 135.529 75.8876C135.178 77.5239 136.068 77.6409 136.185 78.5315C136.302 79.422 134.78 80.8841 135.761 82.5187C136.343 83.487 137.69 83.7631 138.201 84.4179C138.713 85.0727 138.673 86.1638 139.416 86.9607C139.73 87.2975 140.106 87.5693 140.525 87.7605C140.944 87.9517 141.396 88.0586 141.855 88.075C142.315 88.0915 142.774 88.0172 143.205 87.8564C143.636 87.6956 144.031 87.4514 144.368 87.1378C145.014 87.778 145.882 88.1439 146.791 88.1591C147.7 88.1743 148.579 87.8376 149.246 87.2194C149.673 86.8225 149.993 86.3248 150.178 85.7719C150.881 85.7432 151.301 85.5351 151.194 85.1024Z" fill="url(#paint10_linear_13572_5962)"/>
<path d="M139.564 70.73C139.222 72.2956 140.049 75.4823 143.261 77.658C143.961 78.1327 143.784 78.6617 142.757 78.2388C139.659 76.963 137.581 75.0961 138.196 72.5936C138.304 72.1593 138.591 72.1366 138.769 71.927C139.106 71.5282 139.341 70.7715 139.564 70.73Z" fill="url(#paint11_linear_13572_5962)"/>
<path d="M150.174 83.8183C149.477 83.1213 146.015 79.707 145.958 79.6478C144.327 81.8434 140.726 78.1648 143.552 77.1192C144.249 76.9643 145.179 75.4929 142.817 73.3631C147.154 73.518 146.962 68.4708 149.305 70.3972C152.504 73.0275 155.268 76.3638 153.457 78.1754C153.256 78.3712 153.039 78.549 152.807 78.7069L154.046 79.946C154.821 80.7205 156.602 79.7137 156.602 79.7137C156.602 79.7137 156.463 84.3908 155.451 85.3779C154.439 86.365 149.942 86.374 149.942 86.374C149.942 86.374 150.949 84.5927 150.174 83.8183Z" fill="url(#paint12_linear_13572_5962)"/>
<g style="mix-blend-mode:multiply">
<path d="M152.807 78.7065C151.634 79.4542 150.326 79.9676 148.957 80.2183C148.957 80.2183 151.259 81.1836 153.579 79.4832L152.807 78.7065Z" fill="#FFDBC9"/>
</g>
<path d="M162.719 78.2422C164.529 78.9289 168.605 82.4243 168.605 82.4243L152.651 98.3781C152.651 98.3781 149.155 94.3027 148.469 92.4922C147.867 90.9062 149.855 86.4067 150.445 85.0952C151.607 85.1603 152.787 84.7666 153.89 83.6634C154.993 82.5603 155.387 81.381 155.322 80.2181C156.633 79.6285 161.133 77.6407 162.719 78.2422Z" fill="url(#paint13_linear_13572_5962)"/>
</g>
</g>
</g>
<g clip-path="url(#clip10_13572_5962)">
<g filter="url(#filter7_d_13572_5962)">
<path fill-rule="evenodd" clip-rule="evenodd" d="M148.61 86.3408C148.915 85.9185 149.781 85.4858 150.303 85.8184C150.748 86.102 151.348 86.6782 151.262 86.5281C151.072 86.1935 150.575 85.5255 150.473 85.0728C150.399 84.743 150.43 84.3659 150.66 84.0891C150.853 83.8555 151.12 83.6428 151.406 83.531C151.708 83.4124 152.115 83.4232 152.341 83.5393C153.004 83.88 153.738 84.9875 153.714 84.9188C153.613 84.6463 153.071 83.8099 153.049 83.3822C153.034 83.0991 153.216 82.7179 153.358 82.5825C153.578 82.3735 153.876 82.1579 154.171 82.0385C154.411 81.9425 154.865 82.0116 155.024 82.0854C155.407 82.2629 156.066 83.0405 156.293 83.3176C156.387 83.4315 156.131 82.9343 156.121 82.5137C156.101 81.7313 157.25 80.8223 158.097 82.0127C158.493 82.5676 158.471 82.5448 158.722 82.9279C159.017 83.3771 159.185 83.6554 159.375 83.9965C159.578 84.3606 160.022 85.1964 160.166 85.6473C160.265 85.9572 160.41 86.7054 160.403 87.2159C160.403 87.2159 160.206 88.9024 160.428 89.4568C160.65 90.0121 160.685 89.9938 160.892 90.3537C161.101 90.7139 161.523 91.0898 161.523 91.0898C161.523 91.0898 160.902 91.6265 160.495 91.8068C160.128 91.9706 159.272 91.563 159.03 91.4254C158.697 91.2357 158.421 91.4949 158.438 91.7853C158.467 92.2435 158.448 93.1117 158.183 93.3391C157.664 93.7849 156.457 94.5099 155.53 95.1056C155.53 95.1056 155.109 94.1224 154.561 94.0499C154.154 93.9934 153.409 93.8297 152.985 93.7643L151.753 93.426C151.307 93.2703 150.371 93.1754 149.563 92.3904C148.848 91.6942 148.603 91.2829 148.583 90.8289C148.562 90.368 148.815 89.9429 148.951 89.8091C149.103 89.6566 149.516 89.3896 149.729 89.3756C149.988 89.3585 150.085 89.3397 150.366 89.4442C150.737 89.5833 150.892 89.6673 150.616 89.4308C150.402 89.2451 150.003 89.0922 149.694 88.8282C149.395 88.5746 148.814 88.2306 148.499 87.7114C148.38 87.5145 148.146 86.9828 148.61 86.3408Z" fill="white"/>
<path fill-rule="evenodd" clip-rule="evenodd" d="M148.61 86.3408C148.915 85.9185 149.781 85.4858 150.303 85.8184C150.748 86.102 151.348 86.6782 151.262 86.5281C151.072 86.1935 150.575 85.5255 150.473 85.0728C150.399 84.743 150.43 84.3659 150.66 84.0891C150.853 83.8555 151.12 83.6428 151.406 83.531C151.708 83.4124 152.115 83.4232 152.341 83.5393C153.004 83.88 153.738 84.9875 153.714 84.9188C153.613 84.6463 153.071 83.8099 153.049 83.3822C153.034 83.0991 153.216 82.7179 153.358 82.5825C153.578 82.3735 153.876 82.1579 154.171 82.0385C154.411 81.9425 154.865 82.0116 155.024 82.0854C155.407 82.2629 156.066 83.0405 156.293 83.3176C156.387 83.4315 156.131 82.9343 156.121 82.5137C156.101 81.7313 157.25 80.8223 158.097 82.0127C158.493 82.5676 158.471 82.5448 158.722 82.9279C159.017 83.3771 159.185 83.6554 159.375 83.9965C159.578 84.3606 160.022 85.1964 160.166 85.6473C160.265 85.9572 160.41 86.7054 160.403 87.2159C160.403 87.2159 160.206 88.9024 160.428 89.4568C160.65 90.0121 160.685 89.9938 160.892 90.3537C161.101 90.7139 161.523 91.0898 161.523 91.0898C161.523 91.0898 160.902 91.6265 160.495 91.8068C160.128 91.9706 159.272 91.563 159.03 91.4254C158.697 91.2357 158.421 91.4949 158.438 91.7853C158.467 92.2435 158.448 93.1117 158.183 93.3391C157.664 93.7849 156.457 94.5099 155.53 95.1056C155.53 95.1056 155.109 94.1224 154.561 94.0499C154.154 93.9934 153.409 93.8297 152.985 93.7643L151.753 93.426C151.307 93.2703 150.371 93.1754 149.563 92.3904C148.848 91.6942 148.603 91.2829 148.583 90.8289C148.562 90.368 148.815 89.9429 148.951 89.8091C149.103 89.6566 149.516 89.3896 149.729 89.3756C149.988 89.3585 150.085 89.3397 150.366 89.4442C150.737 89.5833 150.892 89.6673 150.616 89.4308C150.402 89.2451 150.003 89.0922 149.694 88.8282C149.395 88.5746 148.814 88.2306 148.499 87.7114C148.38 87.5145 148.146 86.9828 148.61 86.3408Z" stroke="#101828" stroke-width="0.75" stroke-linecap="round" stroke-linejoin="round"/>
</g>
<path fill-rule="evenodd" clip-rule="evenodd" d="M152.56 88.1169C152.408 87.886 152.098 87.8217 151.867 87.9733C151.636 88.1248 151.572 88.4348 151.724 88.6656L153.37 91.1736C153.521 91.4044 153.831 91.4687 154.062 91.3172C154.293 91.1657 154.357 90.8557 154.206 90.6248L152.56 88.1169ZM153.539 86.8758C153.77 86.7242 154.08 86.7885 154.232 87.0194L155.878 89.5273C156.029 89.7582 155.965 90.0682 155.734 90.2197C155.503 90.3712 155.193 90.3069 155.042 90.0761L153.396 87.5681C153.244 87.3373 153.308 87.0273 153.539 86.8758ZM155.211 85.7782C155.442 85.6267 155.752 85.691 155.904 85.9219L157.55 88.4298C157.701 88.6607 157.637 88.9706 157.406 89.1222C157.175 89.2737 156.865 89.2094 156.714 88.9786L155.068 86.4706C154.916 86.2398 154.98 85.9298 155.211 85.7782Z" fill="#101828"/>
</g>
<defs>
<filter id="filter0_f_13572_5962" x="77.3125" y="77.8286" width="110.172" height="110.171" filterUnits="userSpaceOnUse" color-interpolation-filters="sRGB">
<feFlood flood-opacity="0" result="BackgroundImageFix"/>
<feBlend mode="normal" in="SourceGraphic" in2="BackgroundImageFix" result="shape"/>
<feGaussianBlur stdDeviation="8" result="effect1_foregroundBlur_13572_5962"/>
</filter>
<filter id="filter1_d_13572_5962" x="150.27" y="108.271" width="49.2852" height="49.2857" filterUnits="userSpaceOnUse" color-interpolation-filters="sRGB">
<feFlood flood-opacity="0" result="BackgroundImageFix"/>
<feColorMatrix in="SourceAlpha" type="matrix" values="0 0 0 0 0 0 0 0 0 0 0 0 0 0 0 0 0 0 127 0" result="hardAlpha"/>
<feOffset/>
<feGaussianBlur stdDeviation="1.25"/>
<feColorMatrix type="matrix" values="0 0 0 0 0 0 0 0 0 0 0 0 0 0 0 0 0 0 0.25 0"/>
<feBlend mode="normal" in2="BackgroundImageFix" result="effect1_dropShadow_13572_5962"/>
<feBlend mode="normal" in="SourceGraphic" in2="effect1_dropShadow_13572_5962" result="shape"/>
</filter>
<filter id="filter2_d_13572_5962" x="69.8824" y="113.736" width="46.3289" height="46.3286" filterUnits="userSpaceOnUse" color-interpolation-filters="sRGB">
<feFlood flood-opacity="0" result="BackgroundImageFix"/>
<feColorMatrix in="SourceAlpha" type="matrix" values="0 0 0 0 0 0 0 0 0 0 0 0 0 0 0 0 0 0 127 0" result="hardAlpha"/>
<feOffset/>
<feGaussianBlur stdDeviation="1.175"/>
<feColorMatrix type="matrix" values="0 0 0 0 0 0 0 0 0 0 0 0 0 0 0 0 0 0 0.25 0"/>
<feBlend mode="normal" in2="BackgroundImageFix" result="effect1_dropShadow_13572_5962"/>
<feBlend mode="normal" in="SourceGraphic" in2="effect1_dropShadow_13572_5962" result="shape"/>
</filter>
<filter id="filter3_d_13572_5962" x="25.6887" y="108.071" width="53.2281" height="53.2286" filterUnits="userSpaceOnUse" color-interpolation-filters="sRGB">
<feFlood flood-opacity="0" result="BackgroundImageFix"/>
<feColorMatrix in="SourceAlpha" type="matrix" values="0 0 0 0 0 0 0 0 0 0 0 0 0 0 0 0 0 0 127 0" result="hardAlpha"/>
<feOffset/>
<feGaussianBlur stdDeviation="1.35"/>
<feColorMatrix type="matrix" values="0 0 0 0 0 0 0 0 0 0 0 0 0 0 0 0 0 0 0.25 0"/>
<feBlend mode="normal" in2="BackgroundImageFix" result="effect1_dropShadow_13572_5962"/>
<feBlend mode="normal" in="SourceGraphic" in2="effect1_dropShadow_13572_5962" result="shape"/>
</filter>
<filter id="filter4_d_13572_5962" x="193.65" y="111.25" width="55.4706" height="55.4716" filterUnits="userSpaceOnUse" color-interpolation-filters="sRGB">
<feFlood flood-opacity="0" result="BackgroundImageFix"/>
<feColorMatrix in="SourceAlpha" type="matrix" values="0 0 0 0 0 0 0 0 0 0 0 0 0 0 0 0 0 0 127 0" result="hardAlpha"/>
<feOffset/>
<feGaussianBlur stdDeviation="1.26072"/>
<feColorMatrix type="matrix" values="0 0 0 0 0 0 0 0 0 0 0 0 0 0 0 0 0 0 0.25 0"/>
<feBlend mode="normal" in2="BackgroundImageFix" result="effect1_dropShadow_13572_5962"/>
<feBlend mode="normal" in="SourceGraphic" in2="effect1_dropShadow_13572_5962" result="shape"/>
</filter>
<filter id="filter5_d_13572_5962" x="120.43" y="53.2009" width="49.373" height="49.3723" filterUnits="userSpaceOnUse" color-interpolation-filters="sRGB">
<feFlood flood-opacity="0" result="BackgroundImageFix"/>
<feColorMatrix in="SourceAlpha" type="matrix" values="0 0 0 0 0 0 0 0 0 0 0 0 0 0 0 0 0 0 127 0" result="hardAlpha"/>
<feOffset dy="4"/>
<feGaussianBlur stdDeviation="2"/>
<feComposite in2="hardAlpha" operator="out"/>
<feColorMatrix type="matrix" values="0 0 0 0 0 0 0 0 0 0 0 0 0 0 0 0 0 0 0.25 0"/>
<feBlend mode="normal" in2="BackgroundImageFix" result="effect1_dropShadow_13572_5962"/>
<feBlend mode="normal" in="SourceGraphic" in2="effect1_dropShadow_13572_5962" result="shape"/>
</filter>
<filter id="filter6_d_13572_5962" x="123.828" y="53.5979" width="49.7525" height="49.7531" filterUnits="userSpaceOnUse" color-interpolation-filters="sRGB">
<feFlood flood-opacity="0" result="BackgroundImageFix"/>
<feColorMatrix in="SourceAlpha" type="matrix" values="0 0 0 0 0 0 0 0 0 0 0 0 0 0 0 0 0 0 127 0" result="hardAlpha"/>
<feOffset/>
<feGaussianBlur stdDeviation="0.821436"/>
<feColorMatrix type="matrix" values="0 0 0 0 0 0 0 0 0 0 0 0 0 0 0 0 0 0 0.25 0"/>
<feBlend mode="normal" in2="BackgroundImageFix" result="effect1_dropShadow_13572_5962"/>
<feBlend mode="normal" in="SourceGraphic" in2="effect1_dropShadow_13572_5962" result="shape"/>
</filter>
<filter id="filter7_d_13572_5962" x="145.959" y="80.0638" width="17.9395" height="18.4168" filterUnits="userSpaceOnUse" color-interpolation-filters="sRGB">
<feFlood flood-opacity="0" result="BackgroundImageFix"/>
<feColorMatrix in="SourceAlpha" type="matrix" values="0 0 0 0 0 0 0 0 0 0 0 0 0 0 0 0 0 0 127 0" result="hardAlpha"/>
<feOffset dy="1"/>
<feGaussianBlur stdDeviation="1"/>
<feColorMatrix type="matrix" values="0 0 0 0 0.027451 0 0 0 0 0.12549 0 0 0 0 0.239216 0 0 0 0.24 0"/>
<feBlend mode="normal" in2="BackgroundImageFix" result="effect1_dropShadow_13572_5962"/>
<feBlend mode="normal" in="SourceGraphic" in2="effect1_dropShadow_13572_5962" result="shape"/>
</filter>
<linearGradient id="paint0_linear_13572_5962" x1="186.68" y1="153.769" x2="174.993" y2="133.93" gradientUnits="userSpaceOnUse">
<stop stop-color="#E2834C"/>
<stop offset="1" stop-color="#DF6638"/>
</linearGradient>
<linearGradient id="paint1_linear_13572_5962" x1="180.893" y1="114.904" x2="180.893" y2="122.742" gradientUnits="userSpaceOnUse">
<stop stop-color="#1D0024"/>
<stop offset="1" stop-color="#100014"/>
</linearGradient>
<linearGradient id="paint2_linear_13572_5962" x1="174.019" y1="117.061" x2="174.019" y2="135.672" gradientUnits="userSpaceOnUse">
<stop stop-color="#1D0024"/>
<stop offset="1" stop-color="#100014"/>
</linearGradient>
<linearGradient id="paint3_linear_13572_5962" x1="173.768" y1="124.279" x2="173.768" y2="142.214" gradientUnits="userSpaceOnUse">
<stop stop-color="#E6864E"/>
<stop offset="1" stop-color="#EB965E"/>
</linearGradient>
<linearGradient id="paint4_linear_13572_5962" x1="93.6349" y1="126.126" x2="93.6349" y2="147.862" gradientUnits="userSpaceOnUse">
<stop stop-color="#E6864E"/>
<stop offset="1" stop-color="#EB965E"/>
</linearGradient>
<linearGradient id="paint5_linear_13572_5962" x1="96.4309" y1="139.191" x2="95.5803" y2="142.412" gradientUnits="userSpaceOnUse">
<stop stop-color="#E07A3F"/>
<stop offset="1" stop-color="#EB9154"/>
</linearGradient>
<linearGradient id="paint6_linear_13572_5962" x1="94.1563" y1="120.248" x2="94.1563" y2="136.9" gradientUnits="userSpaceOnUse">
<stop stop-color="#1D0024"/>
<stop offset="1" stop-color="#100014"/>
</linearGradient>
<linearGradient id="paint7_linear_13572_5962" x1="50.2118" y1="116.923" x2="50.2118" y2="153.339" gradientUnits="userSpaceOnUse">
<stop stop-color="#130027"/>
<stop offset="1" stop-color="#130017"/>
</linearGradient>
<linearGradient id="paint8_linear_13572_5962" x1="50.6375" y1="124.961" x2="50.6375" y2="144.092" gradientUnits="userSpaceOnUse">
<stop stop-color="#FFE0CC"/>
<stop offset="1" stop-color="#FFEADB"/>
</linearGradient>
<linearGradient id="paint9_linear_13572_5962" x1="52.3037" y1="147.759" x2="52.3037" y2="155.411" gradientUnits="userSpaceOnUse">
<stop stop-color="#130027"/>
<stop offset="1" stop-color="#130017"/>
</linearGradient>
<linearGradient id="paint10_linear_13572_5962" x1="151.81" y1="84.8413" x2="138.67" y2="70.7474" gradientUnits="userSpaceOnUse">
<stop stop-color="#E6864E"/>
<stop offset="1" stop-color="#E67240"/>
</linearGradient>
<linearGradient id="paint11_linear_13572_5962" x1="138.135" y1="72.1212" x2="143.981" y2="77.9673" gradientUnits="userSpaceOnUse">
<stop stop-color="#1D0024"/>
<stop offset="1" stop-color="#100014"/>
</linearGradient>
<linearGradient id="paint12_linear_13572_5962" x1="143.735" y1="72.4446" x2="156.06" y2="84.7692" gradientUnits="userSpaceOnUse">
<stop stop-color="#FFE0CC"/>
<stop offset="1" stop-color="#FFEADB"/>
</linearGradient>
<linearGradient id="paint13_linear_13572_5962" x1="152.883" y1="82.6566" x2="160.628" y2="90.4012" gradientUnits="userSpaceOnUse">
<stop stop-color="#130027"/>
<stop offset="1" stop-color="#130017"/>
</linearGradient>
<clipPath id="clip0_13572_5962">
<rect x="152.77" y="110.771" width="44.2857" height="44.2857" rx="22.1429" fill="white"/>
</clipPath>
<clipPath id="clip1_13572_5962">
<rect x="152.77" y="110.771" width="44.2857" height="44.2857" rx="22.1429" fill="white"/>
</clipPath>
<clipPath id="clip2_13572_5962">
<rect x="71.2852" y="110.771" width="44.2857" height="44.2857" rx="22.1429" fill="white"/>
</clipPath>
<clipPath id="clip3_13572_5962">
<rect x="72.2324" y="116.086" width="41.6286" height="41.6286" rx="20.8143" fill="white"/>
</clipPath>
<clipPath id="clip4_13572_5962">
<rect x="30.541" y="110.771" width="44.2857" height="44.2857" rx="22.1429" fill="white"/>
</clipPath>
<clipPath id="clip5_13572_5962">
<rect x="28.3887" y="110.771" width="47.8286" height="47.8286" rx="23.9143" fill="white"/>
</clipPath>
<clipPath id="clip6_13572_5962">
<rect x="196.17" y="110.771" width="44.2857" height="44.2857" rx="22.1429" fill="white"/>
</clipPath>
<clipPath id="clip7_13572_5962">
<rect width="50.4287" height="50.4287" rx="25.2144" transform="matrix(-1 0 0 1 246.6 113.771)" fill="white"/>
</clipPath>
<clipPath id="clip8_13572_5962">
<rect x="130.467" y="59.2362" width="34.7225" height="34.7225" rx="17.3613" fill="white"/>
</clipPath>
<clipPath id="clip9_13572_5962">
<rect x="125.471" y="78.4745" width="32.8574" height="32.8574" rx="16.4287" transform="rotate(-45 125.471 78.4745)" fill="white"/>
</clipPath>
<clipPath id="clip10_13572_5962">
<rect width="17.7143" height="17.7143" fill="white" transform="translate(140.371 85.9498) rotate(-33.2817)"/>
</clipPath>
</defs>
</svg>
