<?xml version="1.0" encoding="UTF-8"?>
<svg id="Layer_1" data-name="Layer 1" xmlns="http://www.w3.org/2000/svg" viewBox="0 0 24 24" width="24" height="24">
  <defs>
    <style>
      .cls-1 {
        fill: #fff;
      }
    </style>
  </defs>
  <path class="cls-1" d="M5.59,15.35c-.8-.02-1.57.25-2.18.76-1.78,1.5-2.34,5.33-2.4,5.76-.04.31.06.62.28.84.19.19.44.29.71.29.04,0,.09,0,.13,0,.43-.06,4.26-.62,5.76-2.4,1.08-1.28,1.02-3.19-.17-4.35-.58-.55-1.33-.87-2.13-.89ZM6.36,19.31c-.53.63-1.88,1.13-3.1,1.43.3-1.22.8-2.57,1.43-3.1,0,0,0,0,0,0,.22-.19.5-.29.8-.29h.04c.31,0,.6.13.8.33.42.42.44,1.15.03,1.63Z"/>
  <path class="cls-1" d="M22.01,1c-2.4,0-4.82.59-6.94,1.76-1.89,1.04-3.52,2.5-4.75,4.25-1.24-.3-3.73-.72-5.28.32-1.79,1.2-2.41,4.39-2.48,4.75-.05.29.03.59.22.82s.47.36.77.36h4.71l2.49,2.49v4.71c0,.3.13.58.36.77.18.15.41.23.64.23.06,0,.12,0,.18-.02.36-.07,3.56-.69,4.76-2.48,1.03-1.54.62-4.03.32-5.27,4.94-3.61,6-8.32,6-11.7,0-.55-.44-1-.99-1ZM7.99,11.26h-3.16c.3-.92.76-1.9,1.32-2.27.65-.43,1.93-.38,3.04-.18-.45.79-.85,1.61-1.2,2.45ZM15.02,17.85c-.37.56-1.35,1.02-2.27,1.32v-3.16c.84-.35,1.66-.74,2.45-1.18.2,1.11.25,2.38-.18,3.02ZM15.3,12.44c-1.05.66-2.16,1.24-3.32,1.72l-2.14-2.14c.48-1.14,1.06-2.24,1.72-3.28,1.1-1.76,2.65-3.22,4.47-4.22,1.52-.83,3.2-1.34,4.93-1.47-.22,2.9-1.47,6.59-5.66,9.41Z"/>
</svg>