<?xml version="1.0" encoding="UTF-8"?>
<svg id="Layer_1" data-name="Layer 1" xmlns="http://www.w3.org/2000/svg" viewBox="0 0 24 24" width="24" height="24">
  <defs>
    <style>
      .cls-1 {
        fill: #fff;
      }
    </style>
  </defs>
  <path class="cls-1" d="M22.85,4.23c-.2-.49-.59-.88-1.08-1.08-.37-.15-.71-.15-1.27-.15h-1.5c0-.26-.04-.46-.12-.68-.2-.56-.64-.99-1.19-1.2-.33-.12-.63-.12-1.13-.12H7.44c-.5,0-.8,0-1.13.12-.56.2-.99.64-1.2,1.2-.08.22-.11.42-.12.68h-1.5c-.56,0-.9,0-1.27.15-.49.2-.88.59-1.08,1.08-.15.37-.15.7-.15,1.26v.5c0,1.02,0,1.53.14,2.04.37,1.38,1.45,2.46,2.83,2.83.37.1.75.13,1.33.13.77,2.58,2.99,4.54,5.71,4.93v1.07h-.44c-2.51,0-4.56,2.04-4.56,4.56,0,.8.65,1.44,1.44,1.44h9.11c.8,0,1.44-.65,1.44-1.44,0-2.51-2.04-4.56-4.56-4.56h-.44v-1.07c2.72-.39,4.94-2.35,5.71-4.93.58,0,.95-.03,1.33-.13,1.38-.37,2.46-1.45,2.83-2.83.14-.51.14-1.02.14-2.04v-.5c0-.56,0-.9-.15-1.27ZM5,8.99c-.23,0-.4-.03-.52-.06-.69-.18-1.23-.73-1.41-1.41-.07-.25-.07-.7-.07-1.52v-.5c0-.23,0-.47-.04-.49.07-.01.31-.01.54-.01h1.5v3.99ZM13.44,19c1.22,0,2.24.86,2.49,2h-7.88c.25-1.14,1.28-2,2.49-2h2.89ZM17,3.44v5.56c0,2.76-2.24,5-5,5s-5-2.24-5-5V3.44c0-.23,0-.37-.04-.43.06,0,.13-.01.21-.01.07,0,.16,0,.27,0h9.11c.23,0,.37,0,.43-.04.02.11.01.25.01.48ZM21,6c0,.81,0,1.26-.07,1.52-.18.69-.73,1.23-1.42,1.41-.12.03-.29.05-.52.06v-3.99h1.5c.23,0,.47,0,.49-.04.01.07.01.31.01.54v.5Z"/>
</svg>