<?xml version="1.0" encoding="UTF-8"?>
<svg id="Layer_1" data-name="Layer 1" xmlns="http://www.w3.org/2000/svg" viewBox="0 0 24 24" width="24" height="24">
  <defs>
    <style>
      .cls-1 {
        fill: #fff;
      }
    </style>
  </defs>
  <path class="cls-1" d="M21,20H4.6c-.28,0-.57,0-.58.05-.02-.08-.02-.37-.02-.65V3c0-.55-.45-1-1-1s-1,.45-1,1v16.4c0,.65,0,1.08.22,1.51.19.38.5.68.87.87.43.22.86.22,1.51.22h16.4c.55,0,1-.45,1-1s-.45-1-1-1Z"/>
  <path class="cls-1" d="M21.71,6.29c-.1-.1-.21-.17-.33-.22-.12-.05-.24-.08-.38-.08h-4c-.55,0-1,.45-1,1s.45,1,1,1h1.59l-3.59,3.59-1.73-1.73c-.25-.25-.46-.46-.81-.57-.3-.1-.62-.1-.92,0-.34.11-.55.32-.81.58l-4.43,4.43c-.39.39-.39,1.02,0,1.41.2.2.45.29.71.29s.51-.1.71-.29l4.29-4.29,1.74,1.74c.25.24.46.46.8.57.3.1.62.1.92,0,.34-.11.55-.32.81-.58l3.73-3.73v1.59c0,.55.45,1,1,1s1-.45,1-1v-4h0c0-.14-.03-.26-.08-.38-.05-.12-.12-.23-.22-.33Z"/>
</svg>