<?xml version="1.0" encoding="UTF-8"?>
<svg id="Layer_1" data-name="Layer 1" xmlns="http://www.w3.org/2000/svg" viewBox="0 0 24 24" width="24" height="24">
  <defs>
    <style>
      .cls-1 {
        fill: #fff;
      }
    </style>
  </defs>
  <path class="cls-1" d="M23.89,8.67c-.04-.08-.09-.16-.16-.23-.02-.02-.03-.04-.04-.05-.07-.07-.15-.13-.25-.18L12.84,2.91c-.19-.09-.35-.17-.55-.21-.19-.04-.39-.04-.57,0-.22.04-.38.12-.56.21L.55,8.21C.21,8.38,0,8.73,0,9.11s.21.72.55.89l3.11,1.55-.05,3.92c0,.5.07.99.23,1.45.03.1.34.98,1.13,1.79.94.97,3.45,2.61,6.95,2.61h.07c4.13-.03,6.83-2.34,7.44-3.15.48-.63.7-1.28.75-1.47,0,0,0-.02,0-.03.11-.4.16-.81.15-1.2v-3.92l1.67-.83v4.92c0,.55.45,1,1,1s1-.45,1-1v-6.54c0-.12-.03-.24-.07-.35-.01-.03-.02-.06-.04-.09ZM18.33,15.51c0,.22-.02.43-.07.64-.02.05-.14.46-.42.82-.35.46-2.51,2.34-5.86,2.36h-.06c-3.54,0-5.49-1.98-5.5-2-.47-.49-.67-1.04-.67-1.04-.09-.25-.13-.52-.13-.8l.04-2.95,5.51,2.75c.18.09.34.17.55.21.1.02.19.03.29.03s.19,0,.29-.03c.21-.04.37-.12.55-.21l5.49-2.75v2.95ZM12,13.49L3.24,9.11l8.76-4.38,8.76,4.38-8.76,4.38Z"/>
</svg>