<?xml version="1.0" encoding="UTF-8"?>
<svg id="Layer_1" data-name="Layer 1" xmlns="http://www.w3.org/2000/svg" viewBox="0 0 24 24" width="24" height="24">
  <defs>
    <style>
      .cls-1 {
        fill: #fff;
      }
    </style>
  </defs>
  <path class="cls-1" d="M20.18,8.53c-.43-4.13-3.93-7.36-8.18-7.36s-7.74,3.23-8.18,7.36c-1.62.43-2.82,1.89-2.82,3.64v2.22c0,1.77,1.23,3.25,2.87,3.66.93,2.15,2.91,3.63,5.22,3.89.32.53.9.89,1.57.89h1.67c1.01,0,1.83-.82,1.83-1.83s-.82-1.83-1.83-1.83h-1.67c-.62,0-1.16.31-1.49.78-1.27-.2-2.39-.94-3.1-2.01,1.45-.53,2.49-1.91,2.49-3.54v-2.22c0-1.71-1.15-3.14-2.72-3.61.41-3.04,3.01-5.39,6.16-5.39s5.75,2.35,6.16,5.39c-1.56.46-2.72,1.89-2.72,3.61v2.22c0,2.08,1.69,3.78,3.78,3.78s3.78-1.69,3.78-3.78v-2.22c0-1.75-1.2-3.21-2.82-3.64ZM6.56,12.17v2.22c0,.98-.8,1.78-1.78,1.78s-1.78-.8-1.78-1.78v-2.22c0-.98.8-1.78,1.78-1.78s1.78.8,1.78,1.78ZM21,14.39c0,.98-.8,1.78-1.78,1.78s-1.78-.8-1.78-1.78v-2.22c0-.98.8-1.78,1.78-1.78s1.78.8,1.78,1.78v2.22Z"/>
</svg>