<?xml version="1.0" encoding="UTF-8"?>
<svg id="Layer_1" data-name="Layer 1" xmlns="http://www.w3.org/2000/svg" viewBox="0 0 24 24" width="24" height="24">
  <defs>
    <style>
      .cls-1 {
        fill: #fff;
      }
    </style>
  </defs>
  <path class="cls-1" d="M20.63,2.62c-.93-.47-1.94-.47-3.97-.47H7.33c-2.02,0-3.04,0-3.97.47-.82.42-1.48,1.07-1.89,1.89-.47.93-.47,1.94-.47,3.97v4.09c0,1.12,0,1.68.15,2.23.4,1.49,1.57,2.66,3.06,3.06.36.1.72.13,1.23.14v1.6c0,.77,0,1.24.34,1.66.3.37.74.58,1.21.58.56.02.94-.3,1.52-.77l2.65-2.12c.52-.42.74-.59.94-.69.19-.1.39-.17.59-.21.23-.05.54-.05,1.17-.05h2.8c2.02,0,3.04,0,3.97-.47.82-.42,1.48-1.07,1.89-1.89.47-.93.47-1.94.47-3.97v-3.2c0-2.02,0-3.04-.47-3.97-.42-.82-1.07-1.48-1.89-1.89ZM21,11.68c0,1.65,0,2.56-.26,3.06-.22.44-.58.79-1.02,1.02-.5.25-1.41.25-3.06.25h-2.8c-.74,0-1.14,0-1.57.09-.38.08-.75.21-1.1.39-.39.2-.71.45-1.28.91l-2.47,1.98v-2.36c0-.55-.45-1-1-1-.91,0-1.42,0-1.71-.08-.8-.22-1.44-.85-1.65-1.65-.08-.3-.08-.8-.08-1.72v-4.09c0-1.65,0-2.56.25-3.06.23-.44.58-.79,1.02-1.02.5-.25,1.41-.25,3.06-.25h9.33c1.65,0,2.56,0,3.06.25.44.22.79.58,1.02,1.02.25.5.25,1.41.25,3.06v3.2Z"/>
  <path class="cls-1" d="M7,8.43c-.86,0-1.56.7-1.56,1.56s.7,1.55,1.56,1.55,1.56-.7,1.56-1.55-.7-1.56-1.56-1.56Z"/>
  <path class="cls-1" d="M12,8.43c-.86,0-1.56.7-1.56,1.56s.7,1.55,1.56,1.55,1.56-.7,1.56-1.55-.7-1.56-1.56-1.56Z"/>
  <path class="cls-1" d="M17,8.43c-.86,0-1.56.7-1.56,1.56s.7,1.55,1.56,1.55,1.56-.7,1.56-1.55-.7-1.56-1.56-1.56Z"/>
</svg>